<svg version="1.1" id="Layer_1" xmlns="http://www.w3.org/2000/svg" xmlns:xlink="http://www.w3.org/1999/xlink" x="0px" y="0px"
	 width="100%" viewBox="0 0 1939 814" enable-background="new 0 0 1939 814" xml:space="preserve">
<path fill="#000000" opacity="1.000000" stroke="none" 
	d="
M1295.000000,815.000000 
	C863.333313,815.000000 432.166656,815.000000 1.000000,815.000000 
	C1.000000,543.666687 1.000000,272.333344 1.000000,1.000000 
	C647.333313,1.000000 1293.666626,1.000000 1940.000000,1.000000 
	C1940.000000,272.333344 1940.000000,543.666687 1940.000000,815.000000 
	C1725.166626,815.000000 1510.333374,815.000000 1295.000000,815.000000 
M505.955933,462.713989 
	C497.426788,427.668213 473.701050,407.231873 440.407684,395.388092 
	C442.489716,394.334198 443.988342,393.656555 445.409363,392.843353 
	C456.000244,386.782684 465.666077,379.462982 472.694305,369.429291 
	C486.063416,350.343079 492.293579,329.385742 489.173370,305.765991 
	C487.135864,290.342010 481.681244,276.401154 471.918732,264.731415 
	C451.412384,240.218842 424.163696,227.885422 392.648438,227.244995 
	C345.672882,226.290359 298.663513,226.993912 251.668549,227.010590 
	C249.909119,227.011215 248.149750,227.207504 246.001633,227.335831 
	C246.001633,229.855682 246.001617,231.832016 246.001617,233.808350 
	C246.001617,261.805359 246.001373,289.802368 246.001724,317.799377 
	C246.001938,335.130859 246.024963,352.462372 245.982590,369.793732 
	C245.975418,372.728516 246.257370,374.592865 250.086319,375.114410 
	C263.805817,376.983154 277.476013,379.245758 291.122803,381.602844 
	C298.210907,382.827087 305.210815,384.561615 313.128296,386.253143 
	C313.128296,351.477173 313.128296,317.440277 313.128296,283.002289 
	C328.537842,283.002289 343.192963,282.654022 357.820831,283.135193 
	C366.356628,283.415985 375.001862,284.341797 383.321075,286.210022 
	C393.250824,288.439941 402.203796,293.172089 409.034302,301.113342 
	C418.391235,311.991882 420.933075,324.715637 418.969025,338.597809 
	C417.424011,349.518280 412.429291,358.875458 404.269623,365.997589 
	C389.986145,378.464935 372.453033,383.858765 354.137360,386.949066 
	C347.139679,388.129730 340.051697,388.775391 331.880127,389.806793 
	C399.111633,406.013733 461.114441,429.740173 508.575867,482.504089 
	C507.718567,476.191559 506.861267,469.878998 505.955933,462.713989 
M229.249405,432.009338 
	C236.860931,433.026398 244.534180,433.714264 252.071304,435.127991 
	C268.511261,438.211700 284.902802,441.564941 301.276520,444.987915 
	C333.475311,451.719177 364.347046,462.454010 394.016296,476.573242 
	C411.382050,484.837433 427.994843,494.594421 442.914673,506.714417 
	C452.842834,514.779419 461.705780,524.197937 470.702179,533.348206 
	C474.565247,537.277344 477.642731,542.000366 480.919464,546.478088 
	C483.734528,550.324890 488.652527,550.357605 490.677185,544.612854 
	C491.748871,541.572144 492.602966,538.363464 492.930878,535.166504 
	C495.272552,512.338013 488.360168,492.421326 472.995056,475.612915 
	C458.449066,459.700653 440.789398,448.112976 421.042664,439.475281 
	C394.489716,427.860443 366.497955,421.529510 338.086548,417.202332 
	C320.274139,414.489380 302.192657,412.591034 284.197113,412.268402 
	C260.528442,411.844055 236.801788,412.882751 213.145569,414.145142 
	C196.967484,415.008453 180.837433,417.086945 164.741119,419.070282 
	C151.373383,420.717346 138.086182,423.018158 124.763313,425.029388 
	C124.790329,425.686066 124.817337,426.342773 124.844353,426.999451 
	C133.365097,426.999451 141.888275,426.870148 150.405991,427.030823 
	C162.168991,427.252747 173.950821,427.348053 185.682602,428.128662 
	C199.920807,429.076050 214.115265,430.680786 229.249405,432.009338 
M421.345703,509.058136 
	C412.087128,504.374359 403.082855,499.071075 393.514191,495.142548 
	C376.361908,488.100342 358.607361,482.860474 340.042419,480.956482 
	C323.416321,479.251312 306.800568,476.594177 290.142517,476.264709 
	C268.817749,475.843018 247.451096,477.225586 226.110657,478.043854 
	C215.415741,478.453918 204.737289,479.312317 194.056808,480.046967 
	C193.104248,480.112457 192.191818,480.761627 191.374176,481.093658 
	C204.553818,483.411194 217.644958,485.249420 230.517380,488.081726 
	C251.565613,492.712891 272.702484,497.193573 293.383331,503.183105 
	C324.620300,512.229919 354.668854,524.454773 383.085724,540.508850 
	C404.659393,552.696838 425.115021,566.310547 442.674866,583.995728 
	C444.569397,585.903748 448.556610,588.337830 449.957001,587.572144 
	C452.595184,586.129700 455.444031,582.669861 455.728058,579.803223 
	C456.409546,572.923950 456.740601,565.665955 455.281128,558.982666 
	C450.751923,538.242004 438.883972,522.061462 421.345703,509.058136 
M819.010925,388.515656 
	C816.573608,384.777008 814.178162,381.009857 811.668335,377.320496 
	C811.071411,376.443054 810.101196,375.196930 809.286865,375.184845 
	C799.360291,375.037506 789.430664,375.089081 779.384644,375.089081 
	C779.384644,411.350891 779.384644,446.909363 779.384644,482.619141 
	C788.333801,482.619141 796.892334,482.619141 806.223938,482.619141 
	C806.223938,460.485352 806.223938,438.719788 806.223938,416.954224 
	C820.830200,438.317963 834.449097,459.791870 848.147095,481.215240 
	C849.063171,482.647919 850.545532,484.722992 851.818848,484.762817 
	C861.397644,485.062347 870.990173,484.926056 880.579712,484.926056 
	C880.579712,447.910645 880.579712,411.685120 880.579712,375.416565 
	C871.592285,375.416565 863.032410,375.416565 853.827759,375.416565 
	C853.827759,397.779419 853.827759,419.735260 853.827759,442.942139 
	C849.196045,435.787567 845.294983,429.850464 841.484131,423.856018 
	C834.123718,412.278381 826.814209,400.668365 819.010925,388.515656 
M606.497192,375.000000 
	C591.436646,375.000000 576.376099,375.000000 561.438965,375.000000 
	C561.438965,411.507263 561.438965,447.043274 561.438965,483.000000 
	C575.175537,483.000000 588.475342,483.118683 601.771667,482.956512 
	C610.050415,482.855530 618.484863,483.227325 626.561096,481.779053 
	C637.951294,479.736542 648.374390,475.142181 651.720093,462.345398 
	C655.826294,446.640259 651.679932,432.379486 633.908691,427.018616 
	C633.580261,426.919556 633.300293,426.659454 632.888489,426.407715 
	C633.536560,425.913177 633.886719,425.492432 634.331482,425.329071 
	C644.200867,421.704681 649.687805,414.743774 649.955261,404.160736 
	C650.235474,393.075653 646.492554,384.226959 635.691772,379.263611 
	C626.643127,375.105408 617.157654,374.666656 606.497192,375.000000 
M987.348511,483.000000 
	C989.914551,483.000000 992.480530,483.000000 995.815674,483.000000 
	C986.428284,468.456879 977.601929,454.782959 968.756897,441.080139 
	C969.833740,440.327789 970.325684,439.867584 970.905823,439.595825 
	C987.078979,432.019897 993.245361,416.367157 988.681885,398.795532 
	C984.919556,384.308746 972.391357,376.121307 954.971985,375.186981 
	C938.863831,374.322998 922.672913,374.991425 906.518494,375.022369 
	C905.103271,375.025055 903.688660,375.305756 902.460999,375.437256 
	C902.460999,411.533905 902.460999,447.071991 902.460999,482.554321 
	C911.814880,482.554321 920.703735,482.554321 930.205444,482.554321 
	C930.205444,470.882324 930.205444,459.645142 930.205444,447.974701 
	C932.802063,447.974701 935.001099,448.538422 936.712341,447.864105 
	C941.041260,446.158325 943.015320,448.443726 944.883911,451.667053 
	C950.267944,460.955048 955.861450,470.125031 961.069275,479.509735 
	C962.615906,482.296692 964.426514,483.132538 967.404663,483.051422 
	C973.728516,482.879211 980.060364,482.999603 987.348511,483.000000 
M1301.001465,477.336182 
	C1301.106445,479.094482 1301.211426,480.852783 1301.313843,482.567749 
	C1310.781860,482.567749 1319.671265,482.567749 1329.179199,482.567749 
	C1329.179199,470.909485 1329.179199,459.670502 1329.179199,447.948700 
	C1331.945679,447.948700 1334.270020,448.489227 1336.182983,447.832214 
	C1339.780762,446.596497 1341.344482,447.727936 1343.120239,450.944458 
	C1348.388428,460.487396 1354.093506,469.791687 1359.749878,479.115204 
	C1360.636230,480.576202 1362.128296,482.700592 1363.392944,482.738129 
	C1373.438110,483.036469 1383.495850,482.904297 1394.475464,482.904297 
	C1385.158813,468.424805 1376.456177,454.899414 1367.621826,441.169556 
	C1368.708984,440.413116 1369.308594,439.856781 1370.013794,439.525635 
	C1386.173462,431.938171 1391.707031,415.762054 1387.759644,400.067719 
	C1383.810791,384.367218 1371.214233,375.981964 1352.515625,375.143616 
	C1337.055420,374.450470 1321.539551,374.990753 1306.048340,375.017242 
	C1304.464355,375.019958 1302.880615,375.247009 1301.000854,375.392944 
	C1301.000854,409.437042 1301.000854,442.905945 1301.001465,477.336182 
M1055.500000,483.000000 
	C1066.232544,483.000000 1076.965088,483.000000 1087.513184,483.000000 
	C1087.513184,474.765076 1087.513184,467.538422 1087.513184,459.697571 
	C1070.139160,459.697571 1053.243408,459.697571 1036.460205,459.697571 
	C1036.460205,452.822357 1036.460205,446.595917 1036.460205,439.748016 
	C1050.475464,439.748016 1064.037720,439.748016 1077.564087,439.748016 
	C1077.564087,431.874146 1077.564087,424.649445 1077.564087,416.797607 
	C1063.574341,416.797607 1050.012207,416.797607 1036.411377,416.797607 
	C1036.411377,410.258179 1036.411377,404.368256 1036.411377,397.848511 
	C1053.708496,397.848511 1070.603149,397.848511 1087.612305,397.848511 
	C1087.612305,389.980103 1087.612305,382.757019 1087.612305,375.364655 
	C1061.007812,375.364655 1034.791260,375.364655 1008.336914,375.364655 
	C1008.336914,411.276978 1008.336914,446.824127 1008.336914,483.000000 
	C1023.945557,483.000000 1039.222778,483.000000 1055.500000,483.000000 
M1268.494019,398.002960 
	C1273.235474,398.002960 1277.976807,398.002960 1282.514893,398.002960 
	C1282.514893,389.769623 1282.514893,382.542999 1282.514893,375.463562 
	C1255.808716,375.463562 1229.590210,375.463562 1203.437012,375.463562 
	C1203.437012,411.474884 1203.437012,447.022644 1203.437012,482.580017 
	C1230.096313,482.580017 1256.314087,482.580017 1282.592285,482.580017 
	C1282.592285,474.929779 1282.592285,467.705688 1282.592285,459.852600 
	C1265.299438,459.852600 1248.403442,459.852600 1231.382446,459.852600 
	C1231.382446,452.985229 1231.382446,446.762360 1231.382446,439.902954 
	C1245.317261,439.902954 1258.880005,439.902954 1272.641113,439.902954 
	C1272.641113,432.034790 1272.641113,424.812225 1272.641113,416.951416 
	C1258.732056,416.951416 1245.168945,416.951416 1231.334717,416.951416 
	C1231.334717,410.419220 1231.334717,404.530060 1231.334717,398.002960 
	C1243.606323,398.002960 1255.550903,398.002960 1268.494019,398.002960 
M678.148193,423.771729 
	C671.365540,443.213745 664.582947,462.655762 657.500183,482.958191 
	C666.865845,482.958191 675.307190,483.074432 683.737122,482.816345 
	C684.835449,482.782745 686.375549,481.009125 686.854309,479.722595 
	C688.871033,474.303833 690.635620,468.786591 692.340027,463.258392 
	C693.078918,460.861542 694.289490,459.900208 696.932861,459.938873 
	C707.592773,460.094788 718.258789,460.131226 728.916748,459.920105 
	C731.869446,459.861603 733.033508,461.101746 733.808044,463.573090 
	C735.488953,468.936707 737.131104,474.322510 739.127747,479.570404 
	C739.651367,480.946503 741.383362,482.780792 742.613770,482.822174 
	C751.080750,483.107025 759.561829,482.971924 768.501953,482.971924 
	C767.811523,480.463348 767.366394,478.381592 766.670105,476.387512 
	C759.644165,456.265778 752.582825,436.156403 745.519287,416.047791 
	C741.138855,403.577362 736.600708,391.159607 732.442566,378.615692 
	C731.418396,375.526001 729.758667,374.938995 726.972473,374.968018 
	C718.143860,375.059998 709.307251,375.197205 700.487061,374.908325 
	C696.711731,374.784668 695.088928,375.946991 693.858521,379.610016 
	C688.967346,394.171417 683.645447,408.588135 678.148193,423.771729 
M1577.163452,405.319489 
	C1573.632812,395.232391 1570.102173,385.145264 1566.554688,375.010162 
	C1555.320801,375.010162 1544.661133,374.892029 1534.010864,375.152527 
	C1532.603882,375.186951 1530.551758,376.870209 1529.981567,378.271301 
	C1527.428833,384.542847 1525.309082,390.990448 1523.024780,397.371521 
	C1516.452148,415.731201 1509.825317,434.071777 1503.320557,452.455475 
	C1499.807983,462.382751 1496.501221,472.382874 1492.888428,482.975433 
	C1501.886841,482.975433 1510.195679,483.108276 1518.490967,482.832642 
	C1519.739258,482.791138 1521.506104,481.071014 1522.034302,479.733154 
	C1523.974243,474.817719 1525.414062,469.707733 1527.201294,464.728058 
	C1528.234375,461.849274 1529.556763,459.728668 1533.546143,459.876434 
	C1543.698730,460.252502 1553.875366,460.081757 1564.040283,459.951080 
	C1566.808472,459.915497 1568.262817,460.812164 1569.056030,463.524078 
	C1570.587036,468.759216 1572.235718,473.978485 1574.233398,479.047516 
	C1574.850708,480.613525 1576.713745,482.732574 1578.080200,482.788483 
	C1586.522095,483.133667 1594.985107,482.961884 1604.198975,482.961884 
	C1599.565308,469.666046 1595.158569,457.069550 1590.785889,444.461182 
	C1586.344727,431.655243 1581.937500,418.837524 1577.163452,405.319489 
M1680.262451,478.890594 
	C1687.961060,473.841461 1693.096436,466.873657 1694.525024,457.780365 
	C1696.375244,446.002380 1695.110718,433.307098 1681.796265,426.082855 
	C1674.901245,422.341797 1667.272217,419.944489 1659.947754,417.007385 
	C1654.001709,414.623138 1647.803711,412.756744 1642.117798,409.871643 
	C1637.981079,407.772583 1637.638062,402.406372 1641.225708,399.493439 
	C1643.378296,397.745697 1646.389893,396.366180 1649.122070,396.145966 
	C1658.839966,395.362762 1668.202637,397.371124 1677.206177,401.068481 
	C1680.509155,402.424835 1683.817505,403.768311 1687.555542,405.294037 
	C1689.146973,398.641174 1690.179565,392.423553 1692.191040,386.540619 
	C1693.695312,382.140717 1691.828369,380.611023 1688.383179,379.188965 
	C1675.490112,373.867096 1662.045410,371.312927 1648.169189,372.099884 
	C1636.381592,372.768402 1625.441040,375.847900 1617.087524,385.298004 
	C1609.781006,393.563538 1607.904663,410.198059 1613.170898,419.846130 
	C1617.803101,428.332489 1625.343750,432.794525 1633.791626,435.956390 
	C1642.123657,439.074799 1650.826538,441.197815 1659.179077,444.268066 
	C1663.002808,445.673706 1667.062988,448.141663 1666.825562,452.991119 
	C1666.596436,457.671021 1663.099121,460.116974 1658.689819,461.186462 
	C1657.893311,461.379639 1657.098755,461.956451 1656.344238,461.890350 
	C1648.304932,461.185822 1640.138672,461.039062 1632.283325,459.408600 
	C1625.980957,458.100494 1620.058472,454.961670 1613.515625,452.462616 
	C1611.941528,459.818237 1610.290283,466.845825 1609.071777,473.947693 
	C1608.881592,475.056885 1610.419067,477.322327 1611.571045,477.665436 
	C1620.539062,480.336334 1629.497681,483.262421 1638.671753,484.965332 
	C1652.812378,487.590118 1666.710449,486.482361 1680.262451,478.890594 
M1179.592041,402.788086 
	C1180.839722,397.317078 1181.777954,391.749786 1183.440430,386.407867 
	C1184.605469,382.664154 1183.472290,380.909912 1180.147095,379.549225 
	C1165.516724,373.562683 1150.512451,370.316803 1134.640381,372.897095 
	C1113.014771,376.412720 1105.900269,382.663574 1101.630981,402.887695 
	C1099.818359,411.473663 1104.015137,422.565308 1111.092529,428.075226 
	C1118.145020,433.565735 1126.136230,436.770966 1134.660645,439.170837 
	C1141.151611,440.998322 1147.610596,443.236786 1153.663330,446.162140 
	C1155.755249,447.173096 1157.627930,450.787018 1157.668457,453.243988 
	C1157.703979,455.389709 1155.500854,458.352509 1153.458740,459.610779 
	C1146.472168,463.915497 1138.454590,462.728333 1131.152954,461.303253 
	C1122.336914,459.582703 1113.889404,455.973236 1104.765625,453.013702 
	C1103.506958,458.802094 1102.583130,465.192291 1100.642456,471.257141 
	C1099.241089,475.636688 1100.890869,477.308228 1104.449707,478.728882 
	C1120.275879,485.046417 1136.495972,487.450745 1153.536133,485.104248 
	C1172.374878,482.510193 1182.874512,473.103699 1186.061890,454.063538 
	C1187.936157,442.867279 1184.555176,432.865753 1174.621582,427.146576 
	C1166.286865,422.348053 1156.727295,419.697784 1147.771484,415.949615 
	C1142.632080,413.798676 1137.243164,411.916870 1132.652222,408.878143 
	C1128.463989,406.105988 1129.181763,400.837769 1133.642822,398.303040 
	C1135.849243,397.049377 1138.558472,396.259247 1141.097168,396.084015 
	C1152.637329,395.287354 1163.310181,398.659302 1173.735596,403.234589 
	C1175.274414,403.909912 1177.333618,403.399200 1179.592041,402.788086 
M1440.036133,430.396820 
	C1434.267822,411.991241 1428.499512,393.585632 1422.765259,375.288818 
	C1412.731079,375.288818 1403.319092,375.288818 1393.754517,375.288818 
	C1393.900879,376.412476 1393.874756,377.277069 1394.133667,378.045715 
	C1405.582886,412.045502 1417.024658,446.048004 1428.651367,479.987183 
	C1429.103027,481.305420 1431.334961,482.824982 1432.773804,482.862671 
	C1442.432861,483.115875 1452.106567,483.143585 1461.762573,482.837006 
	C1463.292358,482.788391 1465.501099,480.988281 1466.121582,479.475281 
	C1468.689819,473.213196 1470.795654,466.759766 1473.021484,460.359344 
	C1479.645996,441.312073 1486.300781,422.275116 1492.833740,403.196472 
	C1495.970337,394.036682 1498.859741,384.792297 1502.046021,375.018921 
	C1492.510620,375.018921 1483.693848,374.917297 1474.885742,375.145020 
	C1473.760132,375.174103 1472.058228,376.716736 1471.671509,377.900574 
	C1467.003784,392.189697 1462.528931,406.541870 1458.012695,420.880402 
	C1454.639160,431.591522 1451.278687,442.306763 1447.611206,453.978638 
	C1444.878052,445.626404 1442.517090,438.411285 1440.036133,430.396820 
M1383.878418,586.631470 
	C1386.110596,586.631470 1388.342651,586.631470 1391.002563,586.631470 
	C1391.002563,578.160095 1390.992798,570.187683 1391.005981,562.215332 
	C1391.014771,556.863647 1392.917358,554.618103 1398.020142,554.047119 
	C1402.644043,553.529663 1405.876953,554.895996 1406.192505,560.214966 
	C1406.338379,562.672729 1406.917603,565.112610 1406.962036,567.566772 
	C1407.075928,573.845032 1407.000000,580.126770 1407.000000,586.676025 
	C1409.901123,586.676025 1412.129028,586.676025 1415.412598,586.676025 
	C1414.938354,576.450500 1414.675415,566.550842 1413.955078,556.684509 
	C1413.442993,549.673096 1409.087158,545.526184 1402.198120,546.188782 
	C1397.473022,546.643250 1392.915405,548.840210 1387.769775,550.415283 
	C1382.789307,544.867126 1377.244019,544.281067 1367.639038,549.178955 
	C1365.673096,543.002014 1362.191162,547.758850 1359.308105,547.594910 
	C1359.308105,560.797180 1359.308105,573.564270 1359.308105,586.520752 
	C1361.967773,586.520752 1364.303101,586.520752 1367.002563,586.520752 
	C1367.002563,578.076477 1367.207886,570.088806 1366.923828,562.118591 
	C1366.760010,557.520935 1368.289795,554.731628 1372.932983,554.050415 
	C1378.752686,553.196655 1380.828613,554.547791 1382.123047,560.137817 
	C1382.602539,562.208313 1382.902588,564.357544 1382.965576,566.480408 
	C1383.157959,572.966125 1383.195312,579.456421 1383.878418,586.631470 
M561.970398,586.663879 
	C572.866943,586.663879 583.763489,586.663879 595.024902,586.663879 
	C594.892456,583.823425 594.788574,581.595642 594.656067,578.754578 
	C585.856812,578.754578 577.624146,578.754578 569.437012,578.754578 
	C569.437012,573.541321 569.437012,568.983459 569.437012,563.804810 
	C576.770813,563.804810 583.683044,563.804810 590.583740,563.804810 
	C590.583740,560.937927 590.583740,558.709473 590.583740,555.843872 
	C583.288879,555.843872 576.385315,555.843872 569.391174,555.843872 
	C569.391174,550.637268 569.391174,546.080078 569.391174,540.892822 
	C578.006836,540.892822 586.248352,540.892822 594.637573,540.892822 
	C594.637573,538.025818 594.637573,535.797424 594.637573,533.347168 
	C583.391602,533.347168 572.500061,533.347168 561.324890,533.347168 
	C561.324890,551.129272 561.324890,568.564941 561.970398,586.663879 
M636.000000,546.501587 
	C636.000000,560.227661 636.000000,573.953735 636.000000,587.765198 
	C639.739014,587.535217 642.612671,586.803772 645.264709,587.287476 
	C659.887939,589.954529 668.482239,584.627441 671.686218,570.551147 
	C674.137756,559.781067 668.204102,548.770142 657.800354,546.661194 
	C653.541443,545.797852 648.747742,547.572449 643.750610,548.203430 
	C643.750610,541.926147 643.750610,535.163818 643.750610,528.069092 
	C640.986633,528.589478 638.768250,529.007080 636.000000,529.528259 
	C636.000000,534.913574 636.000000,540.208069 636.000000,546.501587 
M1050.992188,586.002991 
	C1053.436035,586.399719 1055.879883,586.796509 1058.547363,587.229614 
	C1058.547363,566.980713 1058.547363,547.674377 1058.547363,528.032898 
	C1055.845459,528.584473 1053.645752,529.033569 1051.000732,529.573608 
	C1051.000732,532.540710 1051.000732,535.336853 1051.000732,538.132996 
	C1051.000732,540.998230 1051.000732,543.863403 1051.000732,546.687195 
	C1049.438110,546.687195 1048.930786,546.778748 1048.467896,546.673706 
	C1039.427979,544.621338 1030.517944,547.858826 1026.772949,554.579407 
	C1021.233704,564.519958 1021.888672,576.103027 1028.285522,582.798462 
	C1034.985718,589.811462 1042.564575,588.921082 1050.992188,586.002991 
M854.107849,573.819214 
	C858.707764,587.154297 864.980103,590.288208 878.711121,586.161316 
	C879.405396,585.952698 880.219604,586.016357 880.958923,586.107849 
	C883.433533,586.414062 885.899475,586.790466 888.727722,587.190796 
	C888.727722,567.052979 888.727722,547.838806 888.727722,528.353394 
	C886.080750,528.763489 883.729736,529.127686 880.866455,529.571228 
	C880.866455,535.418396 880.866455,540.998108 880.866455,546.996521 
	C870.852600,544.484802 863.052429,546.891296 857.061646,554.760132 
	C852.807434,560.348022 854.245850,566.754944 854.107849,573.819214 
M1303.000000,542.508423 
	C1303.000000,537.875977 1303.000000,533.243469 1303.000000,528.272095 
	C1300.415161,528.743347 1298.391479,529.112305 1295.862427,529.573364 
	C1295.862427,535.407593 1295.862427,540.993835 1295.862427,546.613953 
	C1281.027222,545.265076 1273.924316,548.321472 1269.826660,557.518005 
	C1266.047363,565.999939 1267.611572,578.049683 1273.222412,583.677246 
	C1278.548828,589.019531 1286.459717,589.439331 1293.899414,585.562012 
	C1297.481079,586.254028 1299.869995,586.715576 1302.259521,587.177307 
	C1302.648560,585.876404 1302.908325,585.411133 1302.909912,584.944946 
	C1302.955566,571.132019 1302.975708,557.318970 1303.000000,542.508423 
M1575.608521,581.790222 
	C1572.649902,580.791077 1571.803955,578.729553 1571.936646,575.678711 
	C1572.167603,570.370483 1572.073242,565.043457 1571.978760,559.726746 
	C1571.844116,552.154419 1569.054321,548.070129 1561.601807,547.005371 
	C1556.765625,546.314453 1551.516724,547.011597 1546.691650,548.123474 
	C1540.713989,549.500977 1540.277954,551.657532 1543.711182,557.482117 
	C1544.750244,557.012451 1545.758667,556.309448 1546.860229,556.102905 
	C1550.858887,555.353577 1554.957764,554.059509 1558.876099,554.440063 
	C1560.696289,554.616821 1562.188599,558.170471 1563.829590,560.193237 
	C1562.146240,561.127625 1560.560181,562.385437 1558.758789,562.927307 
	C1555.308716,563.965027 1551.571533,564.180603 1548.254028,565.495361 
	C1543.589355,567.344055 1541.212769,571.098328 1540.952637,576.298828 
	C1540.691650,581.517700 1543.119629,584.758789 1547.614624,586.819885 
	C1553.745605,589.631042 1559.145752,587.604187 1563.245361,584.700317 
	C1567.404053,586.196838 1570.727295,587.392822 1574.241699,588.657471 
	C1574.917358,585.754211 1575.287598,584.163452 1575.608521,581.790222 
M681.146484,548.430176 
	C676.175720,551.038147 676.067383,551.593262 679.383850,557.461853 
	C694.381226,551.826843 697.266968,552.351624 699.777161,561.714966 
	C698.111145,562.141663 696.453369,562.598145 694.780090,562.988220 
	C691.269531,563.806824 687.616333,564.227478 684.265442,565.469360 
	C678.568176,567.580688 675.803894,573.494629 677.092529,579.708435 
	C678.000305,584.085754 682.943115,588.185547 688.174561,587.854675 
	C692.275452,587.595398 696.298645,586.106262 699.826172,585.286743 
	C703.368591,586.346252 706.834595,587.382996 710.761658,588.557617 
	C710.761658,585.399414 711.423645,582.801025 710.651672,582.264099 
	C706.398010,579.305237 708.349915,575.116028 708.060791,571.448181 
	C707.787292,567.977905 708.137512,564.462646 707.965088,560.979431 
	C707.449768,550.571289 703.272156,546.079041 693.497375,546.118103 
	C689.620972,546.133667 685.749573,547.418152 681.146484,548.430176 
M986.410034,549.842712 
	C979.463501,554.813110 978.870117,562.137207 978.996399,569.751709 
	C979.205872,582.384216 990.876282,590.749573 1003.145447,587.494263 
	C1011.599976,585.250977 1017.873840,577.324585 1017.094849,565.704285 
	C1016.610779,558.483154 1014.819397,552.293518 1008.113770,548.613708 
	C1000.982239,544.700195 993.893799,544.979492 986.410034,549.842712 
M1624.791504,556.609070 
	C1624.195068,560.994446 1623.116455,565.377258 1623.093628,569.765625 
	C1623.028076,582.398865 1634.867065,590.648560 1647.167847,587.491028 
	C1660.759644,584.001892 1663.890259,568.596985 1659.244141,557.050537 
	C1657.836792,553.553223 1654.480957,550.101318 1651.122559,548.267395 
	C1641.349731,542.930481 1631.947876,546.004150 1624.791504,556.609070 
M1346.155762,553.407227 
	C1340.641235,545.617920 1329.179932,543.498657 1320.908813,548.642700 
	C1313.129028,553.481262 1311.695190,560.846863 1311.931763,569.279297 
	C1312.305298,582.599182 1323.895752,591.180237 1336.613770,587.191528 
	C1349.842773,583.042664 1354.796021,566.571289 1346.155762,553.407227 
M811.309204,546.338074 
	C796.404663,549.981567 792.977417,567.088135 799.074097,578.934570 
	C804.275940,589.042358 819.530212,591.141357 827.878235,583.773376 
	C835.380310,577.151917 836.591858,565.578369 833.112183,557.331421 
	C830.328369,550.733765 823.957825,544.601501 811.309204,546.338074 
M1214.047729,558.792053 
	C1211.394409,546.707458 1195.116089,542.310791 1184.934570,549.411621 
	C1177.720215,554.443115 1176.884521,561.745605 1176.994019,569.559570 
	C1177.175781,582.521973 1188.823730,590.746887 1201.395752,587.365723 
	C1212.511353,584.376160 1217.259155,573.305481 1214.047729,558.792053 
M930.834534,581.783630 
	C930.234009,580.518127 929.633545,579.252686 929.060730,578.045532 
	C914.588318,582.818359 905.433899,578.779541 906.728882,567.908447 
	C914.898010,567.908447 923.149597,567.908447 932.000000,567.908447 
	C932.000000,565.366455 931.854736,563.402039 932.026794,561.465698 
	C932.582703,555.209595 930.513672,550.125671 924.713440,547.516418 
	C918.415588,544.683289 911.823547,545.335266 906.314514,549.370422 
	C897.936157,555.507446 895.409851,567.371460 899.677979,577.232788 
	C903.208252,585.389160 911.436768,589.571045 922.085388,587.790161 
	C925.322327,587.248840 930.298950,588.139893 930.834534,581.783630 
M1098.440186,584.049377 
	C1106.913208,577.231689 1107.810913,565.106018 1103.196045,556.078125 
	C1101.290405,552.350281 1097.143188,548.535522 1093.215820,547.298157 
	C1079.804321,543.072571 1070.242920,549.467773 1067.271484,563.662476 
	C1065.994263,569.763123 1069.070435,581.091614 1075.140625,584.808838 
	C1082.269287,589.174255 1090.810425,589.362915 1098.440186,584.049377 
M751.002258,579.401489 
	C751.000183,573.081909 751.109375,566.759766 750.967957,560.443298 
	C750.791565,552.564392 746.859192,546.621277 740.527893,546.290527 
	C736.005554,546.054260 731.381348,547.770203 726.301453,548.707458 
	C726.202576,548.498596 725.627808,547.283752 725.061096,546.085999 
	C722.657043,546.599487 720.597107,547.039490 718.468079,547.494202 
	C718.468079,560.645874 718.468079,573.650757 718.468079,587.017822 
	C721.179260,586.893188 723.403809,586.790894 726.003235,586.671326 
	C726.003235,577.967346 725.951416,569.837952 726.048889,561.710266 
	C726.067383,560.167114 726.187256,558.186890 727.105347,557.174011 
	C730.024109,553.953491 734.369202,552.666199 737.956604,554.476440 
	C740.336426,555.677368 742.088562,559.411987 742.782104,562.330688 
	C743.605469,565.795776 742.995544,569.602478 742.999207,573.261108 
	C743.003662,577.686157 743.000244,582.111145 743.000244,586.614990 
	C746.025269,586.614990 748.250122,586.614990 751.002258,586.614990 
	C751.002258,584.286743 751.002258,582.328247 751.002258,579.401489 
M1476.100098,586.645325 
	C1476.114380,576.453552 1476.868530,566.191345 1475.907104,556.092468 
	C1475.147949,548.119019 1468.721802,544.454956 1461.110229,546.194519 
	C1458.281982,546.841003 1455.651001,548.350159 1452.691772,549.563660 
	C1452.205444,548.520691 1451.634399,547.296082 1451.069702,546.085205 
	C1448.664917,546.598694 1446.601807,547.039246 1444.318359,547.526855 
	C1444.318359,560.540771 1444.318359,573.443787 1444.318359,586.510498 
	C1446.984253,586.510498 1449.321411,586.510498 1452.002563,586.510498 
	C1452.002563,578.386780 1451.998047,570.738098 1452.003906,563.089417 
	C1452.008545,557.015076 1454.564087,554.212097 1460.265991,554.006165 
	C1466.321167,553.787476 1468.610962,556.008911 1468.954102,562.790283 
	C1469.139282,566.445862 1468.997559,570.118103 1468.999512,573.782837 
	C1469.001831,578.045593 1469.000000,582.308289 1469.000000,586.892456 
	C1471.619019,586.892456 1473.425293,586.892456 1476.100098,586.645325 
M1590.000000,578.429749 
	C1590.000488,572.777100 1590.213013,567.113586 1589.922485,561.475952 
	C1589.745850,558.049194 1591.330200,556.287476 1594.125488,555.099243 
	C1602.102539,551.708191 1606.948975,554.928284 1606.992798,563.683228 
	C1607.030762,571.275940 1607.000610,578.868958 1607.000610,586.654053 
	C1609.946533,586.654053 1612.171143,586.654053 1615.000000,586.654053 
	C1615.000000,578.228271 1614.873413,570.122070 1615.041748,562.022034 
	C1615.166626,556.014893 1613.908813,550.413818 1608.443726,547.454346 
	C1602.950439,544.479675 1597.212524,545.675598 1592.072021,549.269043 
	C1591.706421,549.524719 1591.177734,549.547180 1590.653442,549.698730 
	C1590.148438,548.448608 1589.683228,547.297241 1589.167358,546.020508 
	C1586.715332,546.573425 1584.528076,547.066711 1582.385742,547.549805 
	C1582.385742,560.751465 1582.385742,573.628479 1582.385742,586.625366 
	C1584.998901,586.625366 1587.223755,586.625366 1590.000000,586.625366 
	C1590.000000,583.978333 1590.000000,581.689880 1590.000000,578.429749 
M1112.796021,585.820129 
	C1117.660278,586.540588 1122.523315,587.833923 1127.389038,587.843811 
	C1134.271973,587.857849 1138.924438,583.248718 1139.909790,576.664856 
	C1140.646851,571.739441 1136.559448,566.321106 1130.516846,564.280029 
	C1128.015869,563.435242 1125.265137,563.055115 1123.040771,561.756531 
	C1121.400879,560.799255 1120.430542,558.695068 1119.161865,557.101929 
	C1120.834717,556.026733 1122.505493,554.058777 1124.181030,554.054626 
	C1128.184692,554.044617 1132.190918,554.960022 1136.809692,555.584778 
	C1137.357666,553.598633 1137.983521,551.330750 1138.880493,548.079590 
	C1133.631592,547.338501 1128.964355,546.052368 1124.332153,546.167969 
	C1116.786011,546.356262 1111.878784,551.152649 1111.180298,557.817749 
	C1110.678711,562.604858 1114.800171,567.417664 1121.347534,569.662537 
	C1123.220459,570.304688 1125.360718,570.533142 1126.927124,571.608582 
	C1128.768555,572.872803 1130.118652,574.852722 1131.681885,576.522400 
	C1129.842041,577.955994 1128.188354,579.902832 1126.102783,580.659668 
	C1124.458496,581.256348 1122.213135,580.633911 1120.359375,580.111023 
	C1117.724487,579.367737 1115.203857,578.219116 1111.655396,576.872009 
	C1111.829346,580.153076 1111.968750,582.781006 1112.796021,585.820129 
M1221.366211,555.249146 
	C1220.478027,563.020630 1222.718140,566.557556 1230.073242,569.122375 
	C1232.873413,570.098877 1235.791382,570.893311 1238.379150,572.285034 
	C1241.909302,574.183533 1241.989502,577.872620 1238.437622,579.600037 
	C1236.384766,580.598389 1233.641602,580.860046 1231.349976,580.515869 
	C1228.326050,580.061768 1225.440308,578.688293 1222.050781,577.562439 
	C1221.434692,579.853821 1220.821045,582.135620 1220.230713,584.331055 
	C1226.133057,588.378418 1232.459229,588.491211 1238.727051,587.806946 
	C1243.696167,587.264526 1248.567627,581.940430 1248.977295,577.600037 
	C1249.623901,570.747803 1247.771240,567.499939 1241.361572,564.792786 
	C1238.800781,563.711304 1236.035645,563.121155 1233.445557,562.099426 
	C1231.188965,561.209229 1227.804932,560.167114 1229.391602,557.171753 
	C1230.377075,555.311707 1233.709839,553.807373 1236.027344,553.752502 
	C1239.353760,553.673645 1242.715088,555.061890 1246.029785,555.816589 
	C1249.159668,549.545227 1248.752808,548.502136 1242.188354,547.060242 
	C1239.471802,546.463562 1236.611450,545.881348 1233.884155,546.107727 
	C1228.366333,546.565430 1223.572632,548.539978 1221.366211,555.249146 
M1681.648926,562.968872 
	C1681.169922,562.842957 1680.619751,562.827576 1680.223633,562.572754 
	C1678.033203,561.163147 1673.930054,560.906189 1675.292725,556.996826 
	C1676.466553,553.629028 1679.565918,552.910583 1683.061157,553.852600 
	C1686.049316,554.657898 1689.123657,555.143372 1693.687134,556.085632 
	C1692.970093,552.983154 1693.021606,548.884338 1691.725952,548.401611 
	C1687.663330,546.888000 1683.066650,546.051941 1678.726074,546.220764 
	C1672.490479,546.463257 1667.451172,551.451233 1667.018311,556.495056 
	C1666.470337,562.880737 1669.332642,566.722412 1676.357544,569.186340 
	C1679.154785,570.167542 1682.068359,571.002563 1684.622070,572.446655 
	C1687.876099,574.286804 1687.917358,577.835754 1684.613403,579.502319 
	C1682.565918,580.535156 1679.824707,580.909851 1677.539917,580.578796 
	C1674.500977,580.138428 1671.603394,578.723145 1668.144897,577.558289 
	C1667.493896,579.762512 1666.826294,582.022949 1666.161987,584.272217 
	C1671.942505,588.344727 1678.258179,588.448914 1684.534546,587.834351 
	C1689.468628,587.351135 1694.496948,582.101318 1694.972412,577.793518 
	C1695.728638,570.943298 1693.874146,567.666931 1687.533569,564.873108 
	C1685.882690,564.145691 1684.132568,563.643433 1681.648926,562.968872 
M1525.266968,587.996155 
	C1537.846558,586.173340 1537.208740,584.761536 1534.042725,578.065186 
	C1527.095093,580.250977 1519.708374,583.417908 1514.031738,575.792175 
	C1510.629517,571.221436 1510.981567,562.143250 1514.491821,558.000549 
	C1520.293945,551.153442 1527.176758,553.946899 1534.158447,556.627075 
	C1534.791260,553.576050 1538.299072,550.260437 1534.008545,548.305420 
	C1527.178711,545.193481 1519.819702,544.612610 1513.002197,548.654907 
	C1504.501831,553.694946 1501.337524,563.786133 1504.380737,574.770020 
	C1506.720459,583.214661 1513.415894,588.859009 1525.266968,587.996155 
M772.109314,578.606262 
	C766.903381,573.390686 764.945007,564.345093 768.564331,559.217285 
	C774.364319,550.999695 781.966187,553.555786 790.986267,557.512939 
	C790.167236,553.561523 790.519287,549.446716 788.887146,548.386475 
	C781.612122,543.660706 768.074036,546.145569 763.363342,552.322754 
	C756.858521,560.852600 757.205444,575.255859 763.668945,582.266113 
	C769.844482,588.964172 777.260620,588.906921 785.154968,587.081909 
	C791.913391,585.519470 792.476868,583.997803 788.602966,578.028870 
	C783.458496,579.941833 778.220093,582.188782 772.109314,578.606262 
M962.001953,565.321350 
	C962.001953,562.056396 962.001953,558.791443 962.001953,554.930664 
	C966.305847,554.930664 969.869995,554.930664 973.669922,554.930664 
	C973.669922,552.081421 973.669922,549.856079 973.669922,547.326294 
	C969.683350,547.081848 965.986389,546.855164 962.379822,546.634094 
	C962.056213,543.790710 961.800720,541.545776 961.559937,539.429749 
	C959.205078,539.429749 957.305664,539.429749 954.997314,539.429749 
	C955.529541,544.229675 955.076965,548.147644 949.340881,548.606689 
	C948.834167,548.647217 947.990234,550.601379 948.173950,551.485840 
	C948.372620,552.442261 949.476074,553.725403 950.390320,553.924988 
	C953.537903,554.611938 954.096985,556.555115 954.039795,559.375671 
	C953.908325,565.854736 953.971130,572.338623 954.018982,578.820129 
	C954.054626,583.646667 956.812195,587.000977 961.182190,587.690369 
	C965.389648,588.354126 969.850281,587.413025 974.659790,587.151978 
	C974.093384,583.865112 973.725891,581.732422 973.335632,579.467285 
	C971.835571,579.750183 970.864685,579.863464 969.933289,580.120117 
	C963.812195,581.806458 960.766052,579.469788 961.048218,573.097473 
	C961.149597,570.808350 961.669983,568.537903 962.001953,565.321350 
M1161.000000,535.649780 
	C1161.000000,552.580933 1161.000000,569.512085 1161.000000,586.655334 
	C1163.939819,586.655334 1166.167480,586.655334 1168.529175,586.655334 
	C1168.529175,566.996338 1168.529175,547.675110 1168.529175,528.018311 
	C1165.807373,528.586060 1163.608887,529.044617 1161.000366,529.588745 
	C1161.000366,531.427124 1161.000366,533.063904 1161.000000,535.649780 
M611.996216,531.926636 
	C611.872925,530.789612 611.749573,529.652649 611.615967,528.420898 
	C609.156311,528.751160 606.900085,529.054138 604.416199,529.387695 
	C604.416199,548.550720 604.416199,567.566345 604.416199,586.583618 
	C607.067322,586.583618 609.295105,586.583618 611.998779,586.583618 
	C611.998779,568.400635 611.998779,550.619568 611.996216,531.926636 
M1494.999268,555.564209 
	C1494.999268,552.494812 1494.999268,549.425354 1494.999268,545.959351 
	C1491.867554,546.587097 1489.663574,547.028870 1487.341309,547.494324 
	C1487.341309,560.624634 1487.341309,573.515930 1487.341309,586.669800 
	C1489.909790,586.669800 1492.135986,586.669800 1494.999268,586.669800 
	C1494.999268,576.422913 1494.999268,566.483704 1494.999268,555.564209 
M1425.000732,554.611389 
	C1425.000732,565.211975 1425.000732,575.812561 1425.000732,586.670532 
	C1427.913696,586.670532 1430.139893,586.670532 1432.549805,586.670532 
	C1432.549805,573.021057 1432.549805,559.695129 1432.549805,546.033630 
	C1429.848145,546.585449 1427.646606,547.035156 1425.000854,547.575562 
	C1425.000854,549.709839 1425.000854,551.679871 1425.000732,554.611389 
M1495.852051,536.978394 
	C1495.983887,533.911011 1496.938599,530.179932 1492.747681,529.308594 
	C1491.020386,528.949524 1487.439453,530.280334 1487.217163,531.360168 
	C1486.700195,533.871765 1487.711670,536.697937 1488.103760,539.396606 
	C1490.587402,538.848206 1493.071167,538.299805 1495.852051,536.978394 
M1431.015137,529.157776 
	C1430.194824,529.111755 1429.370850,528.992249 1428.554688,529.031921 
	C1423.714233,529.266907 1423.718628,532.743469 1424.095459,536.132263 
	C1424.510132,539.862366 1427.355591,540.383057 1430.340942,539.883850 
	C1434.437744,539.198853 1435.042114,534.425476 1431.015137,529.157776 
z"/>
<path fill="#264E72" opacity="1.000000" stroke="none" 
	d="
M505.979950,463.140228 
	C506.861267,469.878998 507.718567,476.191559 508.575867,482.504089 
	C461.114441,429.740173 399.111633,406.013733 331.880127,389.806793 
	C340.051697,388.775391 347.139679,388.129730 354.137360,386.949066 
	C372.453033,383.858765 389.986145,378.464935 404.269623,365.997589 
	C412.429291,358.875458 417.424011,349.518280 418.969025,338.597809 
	C420.933075,324.715637 418.391235,311.991882 409.034302,301.113342 
	C402.203796,293.172089 393.250824,288.439941 383.321075,286.210022 
	C375.001862,284.341797 366.356628,283.415985 357.820831,283.135193 
	C343.192963,282.654022 328.537842,283.002289 313.128296,283.002289 
	C313.128296,317.440277 313.128296,351.477173 313.128296,386.253143 
	C305.210815,384.561615 298.210907,382.827087 291.122803,381.602844 
	C277.476013,379.245758 263.805817,376.983154 250.086319,375.114410 
	C246.257370,374.592865 245.975418,372.728516 245.982590,369.793732 
	C246.024963,352.462372 246.001938,335.130859 246.001724,317.799377 
	C246.001373,289.802368 246.001617,261.805359 246.001617,233.808350 
	C246.001617,231.832016 246.001633,229.855682 246.001633,227.335831 
	C248.149750,227.207504 249.909119,227.011215 251.668549,227.010590 
	C298.663513,226.993912 345.672882,226.290359 392.648438,227.244995 
	C424.163696,227.885422 451.412384,240.218842 471.918732,264.731415 
	C481.681244,276.401154 487.135864,290.342010 489.173370,305.765991 
	C492.293579,329.385742 486.063416,350.343079 472.694305,369.429291 
	C465.666077,379.462982 456.000244,386.782684 445.409363,392.843353 
	C443.988342,393.656555 442.489716,394.334198 440.407684,395.388092 
	C473.701050,407.231873 497.426788,427.668213 505.979950,463.140228 
z"/>
<path fill="#00AEF0" opacity="1.000000" stroke="none" 
	d="
M228.789032,432.005219 
	C214.115265,430.680786 199.920807,429.076050 185.682602,428.128662 
	C173.950821,427.348053 162.168991,427.252747 150.405991,427.030823 
	C141.888275,426.870148 133.365097,426.999451 124.844353,426.999451 
	C124.817337,426.342773 124.790329,425.686066 124.763313,425.029388 
	C138.086182,423.018158 151.373383,420.717346 164.741119,419.070282 
	C180.837433,417.086945 196.967484,415.008453 213.145569,414.145142 
	C236.801788,412.882751 260.528442,411.844055 284.197113,412.268402 
	C302.192657,412.591034 320.274139,414.489380 338.086548,417.202332 
	C366.497955,421.529510 394.489716,427.860443 421.042664,439.475281 
	C440.789398,448.112976 458.449066,459.700653 472.995056,475.612915 
	C488.360168,492.421326 495.272552,512.338013 492.930878,535.166504 
	C492.602966,538.363464 491.748871,541.572144 490.677185,544.612854 
	C488.652527,550.357605 483.734528,550.324890 480.919464,546.478088 
	C477.642731,542.000366 474.565247,537.277344 470.702179,533.348206 
	C461.705780,524.197937 452.842834,514.779419 442.914673,506.714417 
	C427.994843,494.594421 411.382050,484.837433 394.016296,476.573242 
	C364.347046,462.454010 333.475311,451.719177 301.276520,444.987915 
	C284.902802,441.564941 268.511261,438.211700 252.071304,435.127991 
	C244.534180,433.714264 236.860931,433.026398 228.789032,432.005219 
z"/>
<path fill="#F89420" opacity="1.000000" stroke="none" 
	d="
M421.651459,509.263916 
	C438.883972,522.061462 450.751923,538.242004 455.281128,558.982666 
	C456.740601,565.665955 456.409546,572.923950 455.728058,579.803223 
	C455.444031,582.669861 452.595184,586.129700 449.957001,587.572144 
	C448.556610,588.337830 444.569397,585.903748 442.674866,583.995728 
	C425.115021,566.310547 404.659393,552.696838 383.085724,540.508850 
	C354.668854,524.454773 324.620300,512.229919 293.383331,503.183105 
	C272.702484,497.193573 251.565613,492.712891 230.517380,488.081726 
	C217.644958,485.249420 204.553818,483.411194 191.374176,481.093658 
	C192.191818,480.761627 193.104248,480.112457 194.056808,480.046967 
	C204.737289,479.312317 215.415741,478.453918 226.110657,478.043854 
	C247.451096,477.225586 268.817749,475.843018 290.142517,476.264709 
	C306.800568,476.594177 323.416321,479.251312 340.042419,480.956482 
	C358.607361,482.860474 376.361908,488.100342 393.514191,495.142548 
	C403.082855,499.071075 412.087128,504.374359 421.651459,509.263916 
z"/>
<path fill="#264E72" opacity="1.000000" stroke="none" 
	d="
M819.247253,388.793701 
	C826.814209,400.668365 834.123718,412.278381 841.484131,423.856018 
	C845.294983,429.850464 849.196045,435.787567 853.827759,442.942139 
	C853.827759,419.735260 853.827759,397.779419 853.827759,375.416565 
	C863.032410,375.416565 871.592285,375.416565 880.579712,375.416565 
	C880.579712,411.685120 880.579712,447.910645 880.579712,484.926056 
	C870.990173,484.926056 861.397644,485.062347 851.818848,484.762817 
	C850.545532,484.722992 849.063171,482.647919 848.147095,481.215240 
	C834.449097,459.791870 820.830200,438.317963 806.223938,416.954224 
	C806.223938,438.719788 806.223938,460.485352 806.223938,482.619141 
	C796.892334,482.619141 788.333801,482.619141 779.384644,482.619141 
	C779.384644,446.909363 779.384644,411.350891 779.384644,375.089081 
	C789.430664,375.089081 799.360291,375.037506 809.286865,375.184845 
	C810.101196,375.196930 811.071411,376.443054 811.668335,377.320496 
	C814.178162,381.009857 816.573608,384.777008 819.247253,388.793701 
z"/>
<path fill="#264E72" opacity="1.000000" stroke="none" 
	d="
M606.996216,375.000000 
	C617.157654,374.666656 626.643127,375.105408 635.691772,379.263611 
	C646.492554,384.226959 650.235474,393.075653 649.955261,404.160736 
	C649.687805,414.743774 644.200867,421.704681 634.331482,425.329071 
	C633.886719,425.492432 633.536560,425.913177 632.888489,426.407715 
	C633.300293,426.659454 633.580261,426.919556 633.908691,427.018616 
	C651.679932,432.379486 655.826294,446.640259 651.720093,462.345398 
	C648.374390,475.142181 637.951294,479.736542 626.561096,481.779053 
	C618.484863,483.227325 610.050415,482.855530 601.771667,482.956512 
	C588.475342,483.118683 575.175537,483.000000 561.438965,483.000000 
	C561.438965,447.043274 561.438965,411.507263 561.438965,375.000000 
	C576.376099,375.000000 591.436646,375.000000 606.996216,375.000000 
M623.996094,451.281189 
	C625.018738,443.628937 620.477051,440.132538 615.519897,439.459351 
	C606.942749,438.294586 598.233765,438.100311 588.998718,437.458496 
	C588.998718,442.575256 588.998718,446.368103 588.998718,450.160919 
	C588.998718,453.926910 588.998718,457.692902 588.998718,461.913574 
	C597.344788,461.913574 604.989380,462.362061 612.554993,461.781342 
	C619.452087,461.251923 622.921021,457.755768 623.996094,451.281189 
M620.698425,411.613678 
	C621.492126,403.212067 620.271667,399.581573 615.168640,397.725250 
	C606.707397,394.647369 597.988220,396.141571 589.456665,396.324310 
	C589.456665,404.524231 589.456665,412.073151 589.456665,419.968872 
	C595.877502,419.968872 601.866943,420.281860 607.807129,419.875183 
	C613.067932,419.515015 617.823792,417.623901 620.698425,411.613678 
z"/>
<path fill="#264E72" opacity="1.000000" stroke="none" 
	d="
M986.868713,483.000000 
	C980.060364,482.999603 973.728516,482.879211 967.404663,483.051422 
	C964.426514,483.132538 962.615906,482.296692 961.069275,479.509735 
	C955.861450,470.125031 950.267944,460.955048 944.883911,451.667053 
	C943.015320,448.443726 941.041260,446.158325 936.712341,447.864105 
	C935.001099,448.538422 932.802063,447.974701 930.205444,447.974701 
	C930.205444,459.645142 930.205444,470.882324 930.205444,482.554321 
	C920.703735,482.554321 911.814880,482.554321 902.460999,482.554321 
	C902.460999,447.071991 902.460999,411.533905 902.460999,375.437256 
	C903.688660,375.305756 905.103271,375.025055 906.518494,375.022369 
	C922.672913,374.991425 938.863831,374.322998 954.971985,375.186981 
	C972.391357,376.121307 984.919556,384.308746 988.681885,398.795532 
	C993.245361,416.367157 987.078979,432.019897 970.905823,439.595825 
	C970.325684,439.867584 969.833740,440.327789 968.756897,441.080139 
	C977.601929,454.782959 986.428284,468.456879 995.815674,483.000000 
	C992.480530,483.000000 989.914551,483.000000 986.868713,483.000000 
M947.176453,425.964264 
	C949.626587,425.027130 952.159424,424.260101 954.510010,423.118042 
	C959.674011,420.609222 961.121704,415.827332 960.882751,410.696777 
	C960.659729,405.910034 958.660583,401.835297 953.684753,399.878632 
	C946.148071,396.914886 938.415466,396.554657 930.346375,397.338867 
	C930.346375,407.324829 930.346375,416.855713 930.346375,427.349030 
	C935.945740,426.879395 941.136475,426.444031 947.176453,425.964264 
z"/>
<path fill="#264E72" opacity="1.000000" stroke="none" 
	d="
M1301.001221,476.855530 
	C1301.000854,442.905945 1301.000854,409.437042 1301.000854,375.392944 
	C1302.880615,375.247009 1304.464355,375.019958 1306.048340,375.017242 
	C1321.539551,374.990753 1337.055420,374.450470 1352.515625,375.143616 
	C1371.214233,375.981964 1383.810791,384.367218 1387.759644,400.067719 
	C1391.707031,415.762054 1386.173462,431.938171 1370.013794,439.525635 
	C1369.308594,439.856781 1368.708984,440.413116 1367.621826,441.169556 
	C1376.456177,454.899414 1385.158813,468.424805 1394.475464,482.904297 
	C1383.495850,482.904297 1373.438110,483.036469 1363.392944,482.738129 
	C1362.128296,482.700592 1360.636230,480.576202 1359.749878,479.115204 
	C1354.093506,469.791687 1348.388428,460.487396 1343.120239,450.944458 
	C1341.344482,447.727936 1339.780762,446.596497 1336.182983,447.832214 
	C1334.270020,448.489227 1331.945679,447.948700 1329.179199,447.948700 
	C1329.179199,459.670502 1329.179199,470.909485 1329.179199,482.567749 
	C1319.671265,482.567749 1310.781860,482.567749 1301.313843,482.567749 
	C1301.211426,480.852783 1301.106445,479.094482 1301.001221,476.855530 
M1358.960571,415.261627 
	C1360.093140,406.916901 1357.926880,401.157928 1351.520020,399.492462 
	C1344.478638,397.662048 1337.060547,397.280548 1329.329224,396.201141 
	C1329.329224,407.237549 1329.329224,416.792023 1329.329224,426.976379 
	C1332.918213,426.976379 1336.265503,427.393402 1339.469604,426.893433 
	C1347.201294,425.686981 1355.669922,425.477142 1358.960571,415.261627 
z"/>
<path fill="#264E72" opacity="1.000000" stroke="none" 
	d="
M1055.000000,483.000000 
	C1039.222778,483.000000 1023.945557,483.000000 1008.336914,483.000000 
	C1008.336914,446.824127 1008.336914,411.276978 1008.336914,375.364655 
	C1034.791260,375.364655 1061.007812,375.364655 1087.612305,375.364655 
	C1087.612305,382.757019 1087.612305,389.980103 1087.612305,397.848511 
	C1070.603149,397.848511 1053.708496,397.848511 1036.411377,397.848511 
	C1036.411377,404.368256 1036.411377,410.258179 1036.411377,416.797607 
	C1050.012207,416.797607 1063.574341,416.797607 1077.564087,416.797607 
	C1077.564087,424.649445 1077.564087,431.874146 1077.564087,439.748016 
	C1064.037720,439.748016 1050.475464,439.748016 1036.460205,439.748016 
	C1036.460205,446.595917 1036.460205,452.822357 1036.460205,459.697571 
	C1053.243408,459.697571 1070.139160,459.697571 1087.513184,459.697571 
	C1087.513184,467.538422 1087.513184,474.765076 1087.513184,483.000000 
	C1076.965088,483.000000 1066.232544,483.000000 1055.000000,483.000000 
z"/>
<path fill="#264E72" opacity="1.000000" stroke="none" 
	d="
M1267.994873,398.002960 
	C1255.550903,398.002960 1243.606323,398.002960 1231.334717,398.002960 
	C1231.334717,404.530060 1231.334717,410.419220 1231.334717,416.951416 
	C1245.168945,416.951416 1258.732056,416.951416 1272.641113,416.951416 
	C1272.641113,424.812225 1272.641113,432.034790 1272.641113,439.902954 
	C1258.880005,439.902954 1245.317261,439.902954 1231.382446,439.902954 
	C1231.382446,446.762360 1231.382446,452.985229 1231.382446,459.852600 
	C1248.403442,459.852600 1265.299438,459.852600 1282.592285,459.852600 
	C1282.592285,467.705688 1282.592285,474.929779 1282.592285,482.580017 
	C1256.314087,482.580017 1230.096313,482.580017 1203.437012,482.580017 
	C1203.437012,447.022644 1203.437012,411.474884 1203.437012,375.463562 
	C1229.590210,375.463562 1255.808716,375.463562 1282.514893,375.463562 
	C1282.514893,382.542999 1282.514893,389.769623 1282.514893,398.002960 
	C1277.976807,398.002960 1273.235474,398.002960 1267.994873,398.002960 
z"/>
<path fill="#264E72" opacity="1.000000" stroke="none" 
	d="
M678.315613,423.415100 
	C683.645447,408.588135 688.967346,394.171417 693.858521,379.610016 
	C695.088928,375.946991 696.711731,374.784668 700.487061,374.908325 
	C709.307251,375.197205 718.143860,375.059998 726.972473,374.968018 
	C729.758667,374.938995 731.418396,375.526001 732.442566,378.615692 
	C736.600708,391.159607 741.138855,403.577362 745.519287,416.047791 
	C752.582825,436.156403 759.644165,456.265778 766.670105,476.387512 
	C767.366394,478.381592 767.811523,480.463348 768.501953,482.971924 
	C759.561829,482.971924 751.080750,483.107025 742.613770,482.822174 
	C741.383362,482.780792 739.651367,480.946503 739.127747,479.570404 
	C737.131104,474.322510 735.488953,468.936707 733.808044,463.573090 
	C733.033508,461.101746 731.869446,459.861603 728.916748,459.920105 
	C718.258789,460.131226 707.592773,460.094788 696.932861,459.938873 
	C694.289490,459.900208 693.078918,460.861542 692.340027,463.258392 
	C690.635620,468.786591 688.871033,474.303833 686.854309,479.722595 
	C686.375549,481.009125 684.835449,482.782745 683.737122,482.816345 
	C675.307190,483.074432 666.865845,482.958191 657.500183,482.958191 
	C664.582947,462.655762 671.365540,443.213745 678.315613,423.415100 
M715.031616,403.697784 
	C714.489197,402.349243 713.946777,401.000732 712.961914,398.552094 
	C708.389160,412.366119 704.244690,424.886383 700.012207,437.672668 
	C709.041138,437.672668 717.256592,437.672668 725.918823,437.672668 
	C722.252014,426.313568 718.722961,415.381042 715.031616,403.697784 
z"/>
<path fill="#264E72" opacity="1.000000" stroke="none" 
	d="
M1577.339355,405.672241 
	C1581.937500,418.837524 1586.344727,431.655243 1590.785889,444.461182 
	C1595.158569,457.069550 1599.565308,469.666046 1604.198975,482.961884 
	C1594.985107,482.961884 1586.522095,483.133667 1578.080200,482.788483 
	C1576.713745,482.732574 1574.850708,480.613525 1574.233398,479.047516 
	C1572.235718,473.978485 1570.587036,468.759216 1569.056030,463.524078 
	C1568.262817,460.812164 1566.808472,459.915497 1564.040283,459.951080 
	C1553.875366,460.081757 1543.698730,460.252502 1533.546143,459.876434 
	C1529.556763,459.728668 1528.234375,461.849274 1527.201294,464.728058 
	C1525.414062,469.707733 1523.974243,474.817719 1522.034302,479.733154 
	C1521.506104,481.071014 1519.739258,482.791138 1518.490967,482.832642 
	C1510.195679,483.108276 1501.886841,482.975433 1492.888428,482.975433 
	C1496.501221,472.382874 1499.807983,462.382751 1503.320557,452.455475 
	C1509.825317,434.071777 1516.452148,415.731201 1523.024780,397.371521 
	C1525.309082,390.990448 1527.428833,384.542847 1529.981567,378.271301 
	C1530.551758,376.870209 1532.603882,375.186951 1534.010864,375.152527 
	C1544.661133,374.892029 1555.320801,375.010162 1566.554688,375.010162 
	C1570.102173,385.145264 1573.632812,395.232391 1577.339355,405.672241 
M1549.908325,401.968597 
	C1549.461914,400.965820 1549.015381,399.963074 1548.343628,398.454254 
	C1546.081543,405.334045 1543.986938,411.735748 1541.871216,418.130493 
	C1539.737061,424.580750 1537.581909,431.024078 1535.423828,437.506592 
	C1544.386475,437.506592 1552.539795,437.506592 1561.165527,437.506592 
	C1557.329102,425.512054 1553.681030,414.106384 1549.908325,401.968597 
z"/>
<path fill="#264E72" opacity="1.000000" stroke="none" 
	d="
M1679.916870,479.013733 
	C1666.710449,486.482361 1652.812378,487.590118 1638.671753,484.965332 
	C1629.497681,483.262421 1620.539062,480.336334 1611.571045,477.665436 
	C1610.419067,477.322327 1608.881592,475.056885 1609.071777,473.947693 
	C1610.290283,466.845825 1611.941528,459.818237 1613.515625,452.462616 
	C1620.058472,454.961670 1625.980957,458.100494 1632.283325,459.408600 
	C1640.138672,461.039062 1648.304932,461.185822 1656.344238,461.890350 
	C1657.098755,461.956451 1657.893311,461.379639 1658.689819,461.186462 
	C1663.099121,460.116974 1666.596436,457.671021 1666.825562,452.991119 
	C1667.062988,448.141663 1663.002808,445.673706 1659.179077,444.268066 
	C1650.826538,441.197815 1642.123657,439.074799 1633.791626,435.956390 
	C1625.343750,432.794525 1617.803101,428.332489 1613.170898,419.846130 
	C1607.904663,410.198059 1609.781006,393.563538 1617.087524,385.298004 
	C1625.441040,375.847900 1636.381592,372.768402 1648.169189,372.099884 
	C1662.045410,371.312927 1675.490112,373.867096 1688.383179,379.188965 
	C1691.828369,380.611023 1693.695312,382.140717 1692.191040,386.540619 
	C1690.179565,392.423553 1689.146973,398.641174 1687.555542,405.294037 
	C1683.817505,403.768311 1680.509155,402.424835 1677.206177,401.068481 
	C1668.202637,397.371124 1658.839966,395.362762 1649.122070,396.145966 
	C1646.389893,396.366180 1643.378296,397.745697 1641.225708,399.493439 
	C1637.638062,402.406372 1637.981079,407.772583 1642.117798,409.871643 
	C1647.803711,412.756744 1654.001709,414.623138 1659.947754,417.007385 
	C1667.272217,419.944489 1674.901245,422.341797 1681.796265,426.082855 
	C1695.110718,433.307098 1696.375244,446.002380 1694.525024,457.780365 
	C1693.096436,466.873657 1687.961060,473.841461 1679.916870,479.013733 
z"/>
<path fill="#264E72" opacity="1.000000" stroke="none" 
	d="
M1179.372070,403.112671 
	C1177.333618,403.399200 1175.274414,403.909912 1173.735596,403.234589 
	C1163.310181,398.659302 1152.637329,395.287354 1141.097168,396.084015 
	C1138.558472,396.259247 1135.849243,397.049377 1133.642822,398.303040 
	C1129.181763,400.837769 1128.463989,406.105988 1132.652222,408.878143 
	C1137.243164,411.916870 1142.632080,413.798676 1147.771484,415.949615 
	C1156.727295,419.697784 1166.286865,422.348053 1174.621582,427.146576 
	C1184.555176,432.865753 1187.936157,442.867279 1186.061890,454.063538 
	C1182.874512,473.103699 1172.374878,482.510193 1153.536133,485.104248 
	C1136.495972,487.450745 1120.275879,485.046417 1104.449707,478.728882 
	C1100.890869,477.308228 1099.241089,475.636688 1100.642456,471.257141 
	C1102.583130,465.192291 1103.506958,458.802094 1104.765625,453.013702 
	C1113.889404,455.973236 1122.336914,459.582703 1131.152954,461.303253 
	C1138.454590,462.728333 1146.472168,463.915497 1153.458740,459.610779 
	C1155.500854,458.352509 1157.703979,455.389709 1157.668457,453.243988 
	C1157.627930,450.787018 1155.755249,447.173096 1153.663330,446.162140 
	C1147.610596,443.236786 1141.151611,440.998322 1134.660645,439.170837 
	C1126.136230,436.770966 1118.145020,433.565735 1111.092529,428.075226 
	C1104.015137,422.565308 1099.818359,411.473663 1101.630981,402.887695 
	C1105.900269,382.663574 1113.014771,376.412720 1134.640381,372.897095 
	C1150.512451,370.316803 1165.516724,373.562683 1180.147095,379.549225 
	C1183.472290,380.909912 1184.605469,382.664154 1183.440430,386.407867 
	C1181.777954,391.749786 1180.839722,397.317078 1179.372070,403.112671 
z"/>
<path fill="#264E72" opacity="1.000000" stroke="none" 
	d="
M1440.096191,430.796509 
	C1442.517090,438.411285 1444.878052,445.626404 1447.611206,453.978638 
	C1451.278687,442.306763 1454.639160,431.591522 1458.012695,420.880402 
	C1462.528931,406.541870 1467.003784,392.189697 1471.671509,377.900574 
	C1472.058228,376.716736 1473.760132,375.174103 1474.885742,375.145020 
	C1483.693848,374.917297 1492.510620,375.018921 1502.046021,375.018921 
	C1498.859741,384.792297 1495.970337,394.036682 1492.833740,403.196472 
	C1486.300781,422.275116 1479.645996,441.312073 1473.021484,460.359344 
	C1470.795654,466.759766 1468.689819,473.213196 1466.121582,479.475281 
	C1465.501099,480.988281 1463.292358,482.788391 1461.762573,482.837006 
	C1452.106567,483.143585 1442.432861,483.115875 1432.773804,482.862671 
	C1431.334961,482.824982 1429.103027,481.305420 1428.651367,479.987183 
	C1417.024658,446.048004 1405.582886,412.045502 1394.133667,378.045715 
	C1393.874756,377.277069 1393.900879,376.412476 1393.754517,375.288818 
	C1403.319092,375.288818 1412.731079,375.288818 1422.765259,375.288818 
	C1428.499512,393.585632 1434.267822,411.991241 1440.096191,430.796509 
z"/>
<path fill="#264E72" opacity="1.000000" stroke="none" 
	d="
M1383.585693,586.288208 
	C1383.195312,579.456421 1383.157959,572.966125 1382.965576,566.480408 
	C1382.902588,564.357544 1382.602539,562.208313 1382.123047,560.137817 
	C1380.828613,554.547791 1378.752686,553.196655 1372.932983,554.050415 
	C1368.289795,554.731628 1366.760010,557.520935 1366.923828,562.118591 
	C1367.207886,570.088806 1367.002563,578.076477 1367.002563,586.520752 
	C1364.303101,586.520752 1361.967773,586.520752 1359.308105,586.520752 
	C1359.308105,573.564270 1359.308105,560.797180 1359.308105,547.594910 
	C1362.191162,547.758850 1365.673096,543.002014 1367.639038,549.178955 
	C1377.244019,544.281067 1382.789307,544.867126 1387.769775,550.415283 
	C1392.915405,548.840210 1397.473022,546.643250 1402.198120,546.188782 
	C1409.087158,545.526184 1413.442993,549.673096 1413.955078,556.684509 
	C1414.675415,566.550842 1414.938354,576.450500 1415.412598,586.676025 
	C1412.129028,586.676025 1409.901123,586.676025 1407.000000,586.676025 
	C1407.000000,580.126770 1407.075928,573.845032 1406.962036,567.566772 
	C1406.917603,565.112610 1406.338379,562.672729 1406.192505,560.214966 
	C1405.876953,554.895996 1402.644043,553.529663 1398.020142,554.047119 
	C1392.917358,554.618103 1391.014771,556.863647 1391.005981,562.215332 
	C1390.992798,570.187683 1391.002563,578.160095 1391.002563,586.631470 
	C1388.342651,586.631470 1386.110596,586.631470 1383.585693,586.288208 
z"/>
<path fill="#264E72" opacity="1.000000" stroke="none" 
	d="
M561.647644,586.332214 
	C561.324890,568.564941 561.324890,551.129272 561.324890,533.347168 
	C572.500061,533.347168 583.391602,533.347168 594.637573,533.347168 
	C594.637573,535.797424 594.637573,538.025818 594.637573,540.892822 
	C586.248352,540.892822 578.006836,540.892822 569.391174,540.892822 
	C569.391174,546.080078 569.391174,550.637268 569.391174,555.843872 
	C576.385315,555.843872 583.288879,555.843872 590.583740,555.843872 
	C590.583740,558.709473 590.583740,560.937927 590.583740,563.804810 
	C583.683044,563.804810 576.770813,563.804810 569.437012,563.804810 
	C569.437012,568.983459 569.437012,573.541321 569.437012,578.754578 
	C577.624146,578.754578 585.856812,578.754578 594.656067,578.754578 
	C594.788574,581.595642 594.892456,583.823425 595.024902,586.663879 
	C583.763489,586.663879 572.866943,586.663879 561.647644,586.332214 
z"/>
<path fill="#264E72" opacity="1.000000" stroke="none" 
	d="
M636.000000,546.002075 
	C636.000000,540.208069 636.000000,534.913574 636.000000,529.528259 
	C638.768250,529.007080 640.986633,528.589478 643.750610,528.069092 
	C643.750610,535.163818 643.750610,541.926147 643.750610,548.203430 
	C648.747742,547.572449 653.541443,545.797852 657.800354,546.661194 
	C668.204102,548.770142 674.137756,559.781067 671.686218,570.551147 
	C668.482239,584.627441 659.887939,589.954529 645.264709,587.287476 
	C642.612671,586.803772 639.739014,587.535217 636.000000,587.765198 
	C636.000000,573.953735 636.000000,560.227661 636.000000,546.002075 
M660.892090,576.244263 
	C664.438354,570.188599 664.670349,564.114807 660.986450,558.022705 
	C658.791687,554.393250 654.232056,552.844421 649.588989,554.290344 
	C645.779541,555.476624 643.334900,557.522217 643.910156,562.180725 
	C644.355530,565.787537 643.982300,569.493408 644.002869,573.155090 
	C644.035950,579.032776 649.081238,582.657043 654.685242,580.563843 
	C656.786438,579.778992 658.569824,578.143250 660.892090,576.244263 
z"/>
<path fill="#264E72" opacity="1.000000" stroke="none" 
	d="
M1050.734863,585.709412 
	C1042.564575,588.921082 1034.985718,589.811462 1028.285522,582.798462 
	C1021.888672,576.103027 1021.233704,564.519958 1026.772949,554.579407 
	C1030.517944,547.858826 1039.427979,544.621338 1048.467896,546.673706 
	C1048.930786,546.778748 1049.438110,546.687195 1051.000732,546.687195 
	C1051.000732,543.863403 1051.000732,540.998230 1051.000732,538.132996 
	C1051.000732,535.336853 1051.000732,532.540710 1051.000732,529.573608 
	C1053.645752,529.033569 1055.845459,528.584473 1058.547363,528.032898 
	C1058.547363,547.674377 1058.547363,566.980713 1058.547363,587.229614 
	C1055.879883,586.796509 1053.436035,586.399719 1050.734863,585.709412 
M1034.463379,576.954773 
	C1035.818115,577.881470 1037.063599,579.067871 1038.546021,579.690552 
	C1045.542847,582.629883 1050.984985,578.939453 1050.999634,571.362793 
	C1051.006470,567.871582 1050.711548,564.350037 1051.073242,560.896667 
	C1051.536255,556.476440 1049.573608,554.103760 1045.478149,553.849915 
	C1042.867188,553.688110 1039.861694,553.933777 1037.606934,555.103271 
	C1030.935059,558.563904 1029.444336,568.315918 1034.463379,576.954773 
z"/>
<path fill="#264E72" opacity="1.000000" stroke="none" 
	d="
M854.071045,573.382568 
	C854.245850,566.754944 852.807434,560.348022 857.061646,554.760132 
	C863.052429,546.891296 870.852600,544.484802 880.866455,546.996521 
	C880.866455,540.998108 880.866455,535.418396 880.866455,529.571228 
	C883.729736,529.127686 886.080750,528.763489 888.727722,528.353394 
	C888.727722,547.838806 888.727722,567.052979 888.727722,587.190796 
	C885.899475,586.790466 883.433533,586.414062 880.958923,586.107849 
	C880.219604,586.016357 879.405396,585.952698 878.711121,586.161316 
	C864.980103,590.288208 858.707764,587.154297 854.071045,573.382568 
M864.459534,558.152710 
	C860.656189,564.664124 860.717285,571.219971 865.214661,577.198486 
	C867.736206,580.550537 871.545837,581.469543 875.850403,579.986206 
	C879.615723,578.688721 881.565308,576.761169 881.088745,572.425354 
	C880.654907,568.478027 881.007629,564.445312 880.994202,560.450378 
	C880.974670,554.640930 877.414246,551.904053 871.729797,553.747437 
	C869.314880,554.530518 867.211304,556.273560 864.459534,558.152710 
z"/>
<path fill="#264E72" opacity="1.000000" stroke="none" 
	d="
M1303.000000,543.007202 
	C1302.975708,557.318970 1302.955566,571.132019 1302.909912,584.944946 
	C1302.908325,585.411133 1302.648560,585.876404 1302.259521,587.177307 
	C1299.869995,586.715576 1297.481079,586.254028 1293.899414,585.562012 
	C1286.459717,589.439331 1278.548828,589.019531 1273.222412,583.677246 
	C1267.611572,578.049683 1266.047363,565.999939 1269.826660,557.518005 
	C1273.924316,548.321472 1281.027222,545.265076 1295.862427,546.613953 
	C1295.862427,540.993835 1295.862427,535.407593 1295.862427,529.573364 
	C1298.391479,529.112305 1300.415161,528.743347 1303.000000,528.272095 
	C1303.000000,533.243469 1303.000000,537.875977 1303.000000,543.007202 
M1278.459595,558.152588 
	C1274.943726,564.277893 1274.622437,570.431885 1278.751953,576.351318 
	C1281.591553,580.421692 1286.195190,581.591431 1290.966309,579.862305 
	C1295.189575,578.331726 1296.557983,575.301636 1296.067871,570.920288 
	C1295.718140,567.793823 1296.007324,564.596619 1295.998291,561.431030 
	C1295.981689,555.630066 1292.154053,552.042542 1286.652100,553.382202 
	C1283.911865,554.049500 1281.517212,556.135742 1278.459595,558.152588 
z"/>
<path fill="#264E72" opacity="1.000000" stroke="none" 
	d="
M1575.633179,582.181519 
	C1575.287598,584.163452 1574.917358,585.754211 1574.241699,588.657471 
	C1570.727295,587.392822 1567.404053,586.196838 1563.245361,584.700317 
	C1559.145752,587.604187 1553.745605,589.631042 1547.614624,586.819885 
	C1543.119629,584.758789 1540.691650,581.517700 1540.952637,576.298828 
	C1541.212769,571.098328 1543.589355,567.344055 1548.254028,565.495361 
	C1551.571533,564.180603 1555.308716,563.965027 1558.758789,562.927307 
	C1560.560181,562.385437 1562.146240,561.127625 1563.829590,560.193237 
	C1562.188599,558.170471 1560.696289,554.616821 1558.876099,554.440063 
	C1554.957764,554.059509 1550.858887,555.353577 1546.860229,556.102905 
	C1545.758667,556.309448 1544.750244,557.012451 1543.711182,557.482117 
	C1540.277954,551.657532 1540.713989,549.500977 1546.691650,548.123474 
	C1551.516724,547.011597 1556.765625,546.314453 1561.601807,547.005371 
	C1569.054321,548.070129 1571.844116,552.154419 1571.978760,559.726746 
	C1572.073242,565.043457 1572.167603,570.370483 1571.936646,575.678711 
	C1571.803955,578.729553 1572.649902,580.791077 1575.633179,582.181519 
M1549.930542,577.740540 
	C1552.270874,582.423279 1556.100098,581.581116 1559.710327,580.008911 
	C1564.217163,578.046204 1565.083740,574.442505 1562.896606,567.866821 
	C1559.948486,568.609192 1556.527100,568.716980 1554.082275,570.316833 
	C1552.002563,571.677673 1551.047974,574.757812 1549.930542,577.740540 
z"/>
<path fill="#264E72" opacity="1.000000" stroke="none" 
	d="
M681.511230,548.277588 
	C685.749573,547.418152 689.620972,546.133667 693.497375,546.118103 
	C703.272156,546.079041 707.449768,550.571289 707.965088,560.979431 
	C708.137512,564.462646 707.787292,567.977905 708.060791,571.448181 
	C708.349915,575.116028 706.398010,579.305237 710.651672,582.264099 
	C711.423645,582.801025 710.761658,585.399414 710.761658,588.557617 
	C706.834595,587.382996 703.368591,586.346252 699.826172,585.286743 
	C696.298645,586.106262 692.275452,587.595398 688.174561,587.854675 
	C682.943115,588.185547 678.000305,584.085754 677.092529,579.708435 
	C675.803894,573.494629 678.568176,567.580688 684.265442,565.469360 
	C687.616333,564.227478 691.269531,563.806824 694.780090,562.988220 
	C696.453369,562.598145 698.111145,562.141663 699.777161,561.714966 
	C697.266968,552.351624 694.381226,551.826843 679.383850,557.461853 
	C676.067383,551.593262 676.175720,551.038147 681.511230,548.277588 
M691.429504,569.810425 
	C687.379517,570.616577 684.158142,572.750305 685.369385,577.166321 
	C686.476868,581.204163 690.416138,581.624329 694.072083,580.796143 
	C699.328979,579.605225 700.916870,575.676025 699.213562,567.966614 
	C696.860352,568.452393 694.494934,568.940735 691.429504,569.810425 
z"/>
<path fill="#264E72" opacity="1.000000" stroke="none" 
	d="
M986.713867,549.623535 
	C993.893799,544.979492 1000.982239,544.700195 1008.113770,548.613708 
	C1014.819397,552.293518 1016.610779,558.483154 1017.094849,565.704285 
	C1017.873840,577.324585 1011.599976,585.250977 1003.145447,587.494263 
	C990.876282,590.749573 979.205872,582.384216 978.996399,569.751709 
	C978.870117,562.137207 979.463501,554.813110 986.713867,549.623535 
M1008.995667,569.194458 
	C1008.994446,567.529114 1009.053955,565.861084 1008.981628,564.198792 
	C1008.649414,556.561035 1000.972839,551.436157 993.915771,554.115051 
	C989.150696,555.923828 986.826172,560.661865 987.004456,568.202332 
	C987.161133,574.831360 991.647888,580.467651 997.169189,580.971436 
	C1003.098389,581.512573 1007.681519,577.284241 1008.995667,569.194458 
z"/>
<path fill="#264E72" opacity="1.000000" stroke="none" 
	d="
M1624.927734,556.245361 
	C1631.947876,546.004150 1641.349731,542.930481 1651.122559,548.267395 
	C1654.480957,550.101318 1657.836792,553.553223 1659.244141,557.050537 
	C1663.890259,568.596985 1660.759644,584.001892 1647.167847,587.491028 
	C1634.867065,590.648560 1623.028076,582.398865 1623.093628,569.765625 
	C1623.116455,565.377258 1624.195068,560.994446 1624.927734,556.245361 
M1652.687134,562.356384 
	C1648.366821,551.165344 1639.266479,551.383057 1633.883423,556.792053 
	C1630.400269,560.292053 1629.802979,570.345703 1632.335815,574.647522 
	C1635.094116,579.332703 1639.995605,581.891846 1644.157837,580.820129 
	C1649.459839,579.454895 1652.884033,574.955017 1652.984863,569.138000 
	C1653.019287,567.151306 1652.928223,565.162537 1652.687134,562.356384 
z"/>
<path fill="#264E72" opacity="1.000000" stroke="none" 
	d="
M1346.373535,553.710266 
	C1354.796021,566.571289 1349.842773,583.042664 1336.613770,587.191528 
	C1323.895752,591.180237 1312.305298,582.599182 1311.931763,569.279297 
	C1311.695190,560.846863 1313.129028,553.481262 1320.908813,548.642700 
	C1329.179932,543.498657 1340.641235,545.617920 1346.373535,553.710266 
M1339.002808,577.447205 
	C1342.971436,572.176514 1342.868408,566.337036 1340.921509,560.497253 
	C1339.226562,555.413879 1333.378662,552.493774 1328.799805,553.548035 
	C1323.814209,554.695984 1320.841553,557.865723 1320.187012,562.582520 
	C1319.364014,568.511597 1319.265137,574.688599 1324.809326,578.851990 
	C1329.461426,582.345459 1334.103027,581.369690 1339.002808,577.447205 
z"/>
<path fill="#264E72" opacity="1.000000" stroke="none" 
	d="
M811.718323,546.225647 
	C823.957825,544.601501 830.328369,550.733765 833.112183,557.331421 
	C836.591858,565.578369 835.380310,577.151917 827.878235,583.773376 
	C819.530212,591.141357 804.275940,589.042358 799.074097,578.934570 
	C792.977417,567.088135 796.404663,549.981567 811.718323,546.225647 
M826.881104,569.931763 
	C826.913818,568.434692 827.078369,566.926880 826.957764,565.442261 
	C826.159973,555.623413 817.088501,550.403137 809.437073,555.293091 
	C802.333557,559.833008 802.402466,574.704041 809.888489,578.978699 
	C815.973022,582.453064 822.058350,580.762817 825.191895,574.394714 
	C825.770813,573.218201 826.165771,571.951294 826.881104,569.931763 
z"/>
<path fill="#264E72" opacity="1.000000" stroke="none" 
	d="
M1214.149048,559.195679 
	C1217.259155,573.305481 1212.511353,584.376160 1201.395752,587.365723 
	C1188.823730,590.746887 1177.175781,582.521973 1176.994019,569.559570 
	C1176.884521,561.745605 1177.720215,554.443115 1184.934570,549.411621 
	C1195.116089,542.310791 1211.394409,546.707458 1214.149048,559.195679 
M1200.791504,554.437256 
	C1198.572144,554.103333 1196.194336,553.083313 1194.160522,553.552917 
	C1184.787476,555.717468 1181.347046,569.898438 1188.224365,577.297058 
	C1192.930176,582.359558 1200.845825,582.038391 1204.651489,576.648743 
	C1208.096680,571.769348 1208.956177,558.945435 1200.791504,554.437256 
z"/>
<path fill="#264E72" opacity="1.000000" stroke="none" 
	d="
M930.883057,582.175537 
	C930.298950,588.139893 925.322327,587.248840 922.085388,587.790161 
	C911.436768,589.571045 903.208252,585.389160 899.677979,577.232788 
	C895.409851,567.371460 897.936157,555.507446 906.314514,549.370422 
	C911.823547,545.335266 918.415588,544.683289 924.713440,547.516418 
	C930.513672,550.125671 932.582703,555.209595 932.026794,561.465698 
	C931.854736,563.402039 932.000000,565.366455 932.000000,567.908447 
	C923.149597,567.908447 914.898010,567.908447 906.728882,567.908447 
	C905.433899,578.779541 914.588318,582.818359 929.060730,578.045532 
	C929.633545,579.252686 930.234009,580.518127 930.883057,582.175537 
M923.579834,561.873352 
	C923.910339,561.409485 924.588562,560.882874 924.517883,560.491394 
	C923.758179,556.282959 921.253235,553.604126 916.985901,553.086121 
	C912.556335,552.548462 908.397461,556.183960 906.835938,561.963501 
	C912.226990,561.963501 917.485657,561.963501 923.579834,561.873352 
z"/>
<path fill="#264E72" opacity="1.000000" stroke="none" 
	d="
M1098.178711,584.315186 
	C1090.810425,589.362915 1082.269287,589.174255 1075.140625,584.808838 
	C1069.070435,581.091614 1065.994263,569.763123 1067.271484,563.662476 
	C1070.242920,549.467773 1079.804321,543.072571 1093.215820,547.298157 
	C1097.143188,548.535522 1101.290405,552.350281 1103.196045,556.078125 
	C1107.810913,565.106018 1106.913208,577.231689 1098.178711,584.315186 
M1097.988037,568.293335 
	C1097.732422,566.679626 1097.587646,565.038818 1097.201904,563.456909 
	C1095.579346,556.805725 1091.329102,552.947021 1085.869141,553.064575 
	C1081.198120,553.165100 1076.663452,557.381775 1075.369751,563.436157 
	C1074.157837,569.107788 1075.368774,574.329590 1079.881470,578.336670 
	C1083.155151,581.243530 1086.967163,581.791382 1090.901978,579.876648 
	C1095.319702,577.726868 1097.029663,573.648193 1097.988037,568.293335 
z"/>
<path fill="#264E72" opacity="1.000000" stroke="none" 
	d="
M751.002258,579.885620 
	C751.002258,582.328247 751.002258,584.286743 751.002258,586.614990 
	C748.250122,586.614990 746.025269,586.614990 743.000244,586.614990 
	C743.000244,582.111145 743.003662,577.686157 742.999207,573.261108 
	C742.995544,569.602478 743.605469,565.795776 742.782104,562.330688 
	C742.088562,559.411987 740.336426,555.677368 737.956604,554.476440 
	C734.369202,552.666199 730.024109,553.953491 727.105347,557.174011 
	C726.187256,558.186890 726.067383,560.167114 726.048889,561.710266 
	C725.951416,569.837952 726.003235,577.967346 726.003235,586.671326 
	C723.403809,586.790894 721.179260,586.893188 718.468079,587.017822 
	C718.468079,573.650757 718.468079,560.645874 718.468079,547.494202 
	C720.597107,547.039490 722.657043,546.599487 725.061096,546.085999 
	C725.627808,547.283752 726.202576,548.498596 726.301453,548.707458 
	C731.381348,547.770203 736.005554,546.054260 740.527893,546.290527 
	C746.859192,546.621277 750.791565,552.564392 750.967957,560.443298 
	C751.109375,566.759766 751.000183,573.081909 751.002258,579.885620 
z"/>
<path fill="#264E72" opacity="1.000000" stroke="none" 
	d="
M1475.665771,586.768921 
	C1473.425293,586.892456 1471.619019,586.892456 1469.000000,586.892456 
	C1469.000000,582.308289 1469.001831,578.045593 1468.999512,573.782837 
	C1468.997559,570.118103 1469.139282,566.445862 1468.954102,562.790283 
	C1468.610962,556.008911 1466.321167,553.787476 1460.265991,554.006165 
	C1454.564087,554.212097 1452.008545,557.015076 1452.003906,563.089417 
	C1451.998047,570.738098 1452.002563,578.386780 1452.002563,586.510498 
	C1449.321411,586.510498 1446.984253,586.510498 1444.318359,586.510498 
	C1444.318359,573.443787 1444.318359,560.540771 1444.318359,547.526855 
	C1446.601807,547.039246 1448.664917,546.598694 1451.069702,546.085205 
	C1451.634399,547.296082 1452.205444,548.520691 1452.691772,549.563660 
	C1455.651001,548.350159 1458.281982,546.841003 1461.110229,546.194519 
	C1468.721802,544.454956 1475.147949,548.119019 1475.907104,556.092468 
	C1476.868530,566.191345 1476.114380,576.453552 1475.665771,586.768921 
z"/>
<path fill="#264E72" opacity="1.000000" stroke="none" 
	d="
M1590.000000,578.915527 
	C1590.000000,581.689880 1590.000000,583.978333 1590.000000,586.625366 
	C1587.223755,586.625366 1584.998901,586.625366 1582.385742,586.625366 
	C1582.385742,573.628479 1582.385742,560.751465 1582.385742,547.549805 
	C1584.528076,547.066711 1586.715332,546.573425 1589.167358,546.020508 
	C1589.683228,547.297241 1590.148438,548.448608 1590.653442,549.698730 
	C1591.177734,549.547180 1591.706421,549.524719 1592.072021,549.269043 
	C1597.212524,545.675598 1602.950439,544.479675 1608.443726,547.454346 
	C1613.908813,550.413818 1615.166626,556.014893 1615.041748,562.022034 
	C1614.873413,570.122070 1615.000000,578.228271 1615.000000,586.654053 
	C1612.171143,586.654053 1609.946533,586.654053 1607.000610,586.654053 
	C1607.000610,578.868958 1607.030762,571.275940 1606.992798,563.683228 
	C1606.948975,554.928284 1602.102539,551.708191 1594.125488,555.099243 
	C1591.330200,556.287476 1589.745850,558.049194 1589.922485,561.475952 
	C1590.213013,567.113586 1590.000488,572.777100 1590.000000,578.915527 
z"/>
<path fill="#264E72" opacity="1.000000" stroke="none" 
	d="
M1112.452148,585.614563 
	C1111.968750,582.781006 1111.829346,580.153076 1111.655396,576.872009 
	C1115.203857,578.219116 1117.724487,579.367737 1120.359375,580.111023 
	C1122.213135,580.633911 1124.458496,581.256348 1126.102783,580.659668 
	C1128.188354,579.902832 1129.842041,577.955994 1131.681885,576.522339 
	C1130.118652,574.852722 1128.768555,572.872803 1126.927124,571.608582 
	C1125.360718,570.533142 1123.220459,570.304688 1121.347534,569.662537 
	C1114.800171,567.417664 1110.678711,562.604858 1111.180298,557.817749 
	C1111.878784,551.152649 1116.786011,546.356262 1124.332153,546.167969 
	C1128.964355,546.052368 1133.631592,547.338501 1138.880493,548.079590 
	C1137.983521,551.330750 1137.357666,553.598633 1136.809692,555.584778 
	C1132.190918,554.960022 1128.184692,554.044617 1124.181030,554.054626 
	C1122.505493,554.058777 1120.834717,556.026733 1119.161865,557.101929 
	C1120.430542,558.695068 1121.400879,560.799255 1123.040771,561.756531 
	C1125.265137,563.055115 1128.015869,563.435242 1130.516846,564.280029 
	C1136.559448,566.321106 1140.646851,571.739441 1139.909790,576.664856 
	C1138.924438,583.248718 1134.271973,587.857849 1127.389038,587.843811 
	C1122.523315,587.833923 1117.660278,586.540588 1112.452148,585.614563 
z"/>
<path fill="#264E72" opacity="1.000000" stroke="none" 
	d="
M1221.570435,554.901855 
	C1223.572632,548.539978 1228.366333,546.565430 1233.884155,546.107727 
	C1236.611450,545.881348 1239.471802,546.463562 1242.188354,547.060242 
	C1248.752808,548.502136 1249.159668,549.545227 1246.029785,555.816589 
	C1242.715088,555.061890 1239.353760,553.673645 1236.027344,553.752502 
	C1233.709839,553.807373 1230.377075,555.311707 1229.391602,557.171753 
	C1227.804932,560.167114 1231.188965,561.209229 1233.445557,562.099426 
	C1236.035645,563.121155 1238.800781,563.711304 1241.361572,564.792786 
	C1247.771240,567.499939 1249.623901,570.747803 1248.977295,577.600037 
	C1248.567627,581.940430 1243.696167,587.264526 1238.727051,587.806946 
	C1232.459229,588.491211 1226.133057,588.378418 1220.230713,584.331055 
	C1220.821045,582.135620 1221.434692,579.853821 1222.050781,577.562439 
	C1225.440308,578.688293 1228.326050,580.061768 1231.349976,580.515869 
	C1233.641602,580.860046 1236.384766,580.598389 1238.437622,579.600037 
	C1241.989502,577.872620 1241.909302,574.183533 1238.379150,572.285034 
	C1235.791382,570.893311 1232.873413,570.098877 1230.073242,569.122375 
	C1222.718140,566.557556 1220.478027,563.020630 1221.570435,554.901855 
z"/>
<path fill="#264E72" opacity="1.000000" stroke="none" 
	d="
M1682.038574,563.003296 
	C1684.132568,563.643433 1685.882690,564.145691 1687.533569,564.873108 
	C1693.874146,567.666931 1695.728638,570.943298 1694.972412,577.793518 
	C1694.496948,582.101318 1689.468628,587.351135 1684.534546,587.834351 
	C1678.258179,588.448914 1671.942505,588.344727 1666.161987,584.272217 
	C1666.826294,582.022949 1667.493896,579.762512 1668.144897,577.558289 
	C1671.603394,578.723145 1674.500977,580.138428 1677.539917,580.578796 
	C1679.824707,580.909851 1682.565918,580.535156 1684.613403,579.502319 
	C1687.917358,577.835754 1687.876099,574.286804 1684.622070,572.446655 
	C1682.068359,571.002563 1679.154785,570.167542 1676.357544,569.186340 
	C1669.332642,566.722412 1666.470337,562.880737 1667.018311,556.495056 
	C1667.451172,551.451233 1672.490479,546.463257 1678.726074,546.220764 
	C1683.066650,546.051941 1687.663330,546.888000 1691.725952,548.401611 
	C1693.021606,548.884338 1692.970093,552.983154 1693.687134,556.085632 
	C1689.123657,555.143372 1686.049316,554.657898 1683.061157,553.852600 
	C1679.565918,552.910583 1676.466553,553.629028 1675.292725,556.996826 
	C1673.930054,560.906189 1678.033203,561.163147 1680.223633,562.572754 
	C1680.619751,562.827576 1681.169922,562.842957 1682.038574,563.003296 
z"/>
<path fill="#264E72" opacity="1.000000" stroke="none" 
	d="
M1524.816406,587.997192 
	C1513.415894,588.859009 1506.720459,583.214661 1504.380737,574.770020 
	C1501.337524,563.786133 1504.501831,553.694946 1513.002197,548.654907 
	C1519.819702,544.612610 1527.178711,545.193481 1534.008545,548.305420 
	C1538.299072,550.260437 1534.791260,553.576050 1534.158447,556.627075 
	C1527.176758,553.946899 1520.293945,551.153442 1514.491821,558.000549 
	C1510.981567,562.143250 1510.629517,571.221436 1514.031738,575.792175 
	C1519.708374,583.417908 1527.095093,580.250977 1534.042725,578.065186 
	C1537.208740,584.761536 1537.846558,586.173340 1524.816406,587.997192 
z"/>
<path fill="#264E72" opacity="1.000000" stroke="none" 
	d="
M772.397705,578.857178 
	C778.220093,582.188782 783.458496,579.941833 788.602966,578.028870 
	C792.476868,583.997803 791.913391,585.519470 785.154968,587.081909 
	C777.260620,588.906921 769.844482,588.964172 763.668945,582.266113 
	C757.205444,575.255859 756.858521,560.852600 763.363342,552.322754 
	C768.074036,546.145569 781.612122,543.660706 788.887146,548.386475 
	C790.519287,549.446716 790.167236,553.561523 790.986267,557.512939 
	C781.966187,553.555786 774.364319,550.999695 768.564331,559.217285 
	C764.945007,564.345093 766.903381,573.390686 772.397705,578.857178 
z"/>
<path fill="#264E72" opacity="1.000000" stroke="none" 
	d="
M962.000549,565.790161 
	C961.669983,568.537903 961.149597,570.808350 961.048218,573.097473 
	C960.766052,579.469788 963.812195,581.806458 969.933289,580.120117 
	C970.864685,579.863464 971.835571,579.750183 973.335632,579.467285 
	C973.725891,581.732422 974.093384,583.865112 974.659790,587.151978 
	C969.850281,587.413025 965.389648,588.354126 961.182190,587.690369 
	C956.812195,587.000977 954.054626,583.646667 954.018982,578.820129 
	C953.971130,572.338623 953.908325,565.854736 954.039795,559.375671 
	C954.096985,556.555115 953.537903,554.611938 950.390320,553.924988 
	C949.476074,553.725403 948.372620,552.442261 948.173950,551.485840 
	C947.990234,550.601379 948.834167,548.647217 949.340881,548.606689 
	C955.076965,548.147644 955.529541,544.229675 954.997314,539.429749 
	C957.305664,539.429749 959.205078,539.429749 961.559937,539.429749 
	C961.800720,541.545776 962.056213,543.790710 962.379822,546.634094 
	C965.986389,546.855164 969.683350,547.081848 973.669922,547.326294 
	C973.669922,549.856079 973.669922,552.081421 973.669922,554.930664 
	C969.869995,554.930664 966.305847,554.930664 962.001953,554.930664 
	C962.001953,558.791443 962.001953,562.056396 962.000549,565.790161 
z"/>
<path fill="#264E72" opacity="1.000000" stroke="none" 
	d="
M1161.000244,535.175232 
	C1161.000366,533.063904 1161.000366,531.427124 1161.000366,529.588745 
	C1163.608887,529.044617 1165.807373,528.586060 1168.529175,528.018311 
	C1168.529175,547.675110 1168.529175,566.996338 1168.529175,586.655334 
	C1166.167480,586.655334 1163.939819,586.655334 1161.000000,586.655334 
	C1161.000000,569.512085 1161.000000,552.580933 1161.000244,535.175232 
z"/>
<path fill="#264E72" opacity="1.000000" stroke="none" 
	d="
M611.997498,532.382568 
	C611.998779,550.619568 611.998779,568.400635 611.998779,586.583618 
	C609.295105,586.583618 607.067322,586.583618 604.416199,586.583618 
	C604.416199,567.566345 604.416199,548.550720 604.416199,529.387695 
	C606.900085,529.054138 609.156311,528.751160 611.615967,528.420898 
	C611.749573,529.652649 611.872925,530.789612 611.997498,532.382568 
z"/>
<path fill="#264E72" opacity="1.000000" stroke="none" 
	d="
M1494.999268,556.054321 
	C1494.999268,566.483704 1494.999268,576.422913 1494.999268,586.669800 
	C1492.135986,586.669800 1489.909790,586.669800 1487.341309,586.669800 
	C1487.341309,573.515930 1487.341309,560.624634 1487.341309,547.494324 
	C1489.663574,547.028870 1491.867554,546.587097 1494.999268,545.959351 
	C1494.999268,549.425354 1494.999268,552.494812 1494.999268,556.054321 
z"/>
<path fill="#264E72" opacity="1.000000" stroke="none" 
	d="
M1425.000732,554.130615 
	C1425.000854,551.679871 1425.000854,549.709839 1425.000854,547.575562 
	C1427.646606,547.035156 1429.848145,546.585449 1432.549805,546.033630 
	C1432.549805,559.695129 1432.549805,573.021057 1432.549805,586.670532 
	C1430.139893,586.670532 1427.913696,586.670532 1425.000732,586.670532 
	C1425.000732,575.812561 1425.000732,565.211975 1425.000732,554.130615 
z"/>
<path fill="#264E72" opacity="1.000000" stroke="none" 
	d="
M1495.703369,537.364868 
	C1493.071167,538.299805 1490.587402,538.848206 1488.103760,539.396606 
	C1487.711670,536.697937 1486.700195,533.871765 1487.217163,531.360168 
	C1487.439453,530.280334 1491.020386,528.949524 1492.747681,529.308594 
	C1496.938599,530.179932 1495.983887,533.911011 1495.703369,537.364868 
z"/>
<path fill="#264E72" opacity="1.000000" stroke="none" 
	d="
M1431.388062,529.314575 
	C1435.042114,534.425476 1434.437744,539.198853 1430.340942,539.883850 
	C1427.355591,540.383057 1424.510132,539.862366 1424.095459,536.132263 
	C1423.718628,532.743469 1423.714233,529.266907 1428.554688,529.031921 
	C1429.370850,528.992249 1430.194824,529.111755 1431.388062,529.314575 
z"/>
<path fill="#000000" opacity="1.000000" stroke="none" 
	d="
M623.992676,451.703888 
	C622.921021,457.755768 619.452087,461.251923 612.554993,461.781342 
	C604.989380,462.362061 597.344788,461.913574 588.998718,461.913574 
	C588.998718,457.692902 588.998718,453.926910 588.998718,450.160919 
	C588.998718,446.368103 588.998718,442.575256 588.998718,437.458496 
	C598.233765,438.100311 606.942749,438.294586 615.519897,439.459351 
	C620.477051,440.132538 625.018738,443.628937 623.992676,451.703888 
z"/>
<path fill="#000000" opacity="1.000000" stroke="none" 
	d="
M620.482666,411.953918 
	C617.823792,417.623901 613.067932,419.515015 607.807129,419.875183 
	C601.866943,420.281860 595.877502,419.968872 589.456665,419.968872 
	C589.456665,412.073151 589.456665,404.524231 589.456665,396.324310 
	C597.988220,396.141571 606.707397,394.647369 615.168640,397.725250 
	C620.271667,399.581573 621.492126,403.212067 620.482666,411.953918 
z"/>
<path fill="#000000" opacity="1.000000" stroke="none" 
	d="
M946.751831,425.986450 
	C941.136475,426.444031 935.945740,426.879395 930.346375,427.349030 
	C930.346375,416.855713 930.346375,407.324829 930.346375,397.338867 
	C938.415466,396.554657 946.148071,396.914886 953.684753,399.878632 
	C958.660583,401.835297 960.659729,405.910034 960.882751,410.696777 
	C961.121704,415.827332 959.674011,420.609222 954.510010,423.118042 
	C952.159424,424.260101 949.626587,425.027130 946.751831,425.986450 
z"/>
<path fill="#000000" opacity="1.000000" stroke="none" 
	d="
M1358.913818,415.653229 
	C1355.669922,425.477142 1347.201294,425.686981 1339.469604,426.893433 
	C1336.265503,427.393402 1332.918213,426.976379 1329.329224,426.976379 
	C1329.329224,416.792023 1329.329224,407.237549 1329.329224,396.201141 
	C1337.060547,397.280548 1344.478638,397.662048 1351.520020,399.492462 
	C1357.926880,401.157928 1360.093140,406.916901 1358.913818,415.653229 
z"/>
<path fill="#000000" opacity="1.000000" stroke="none" 
	d="
M715.112732,404.073120 
	C718.722961,415.381042 722.252014,426.313568 725.918823,437.672668 
	C717.256592,437.672668 709.041138,437.672668 700.012207,437.672668 
	C704.244690,424.886383 708.389160,412.366119 712.961914,398.552094 
	C713.946777,401.000732 714.489197,402.349243 715.112732,404.073120 
z"/>
<path fill="#000000" opacity="1.000000" stroke="none" 
	d="
M1549.970703,402.334656 
	C1553.681030,414.106384 1557.329102,425.512054 1561.165527,437.506592 
	C1552.539795,437.506592 1544.386475,437.506592 1535.423828,437.506592 
	C1537.581909,431.024078 1539.737061,424.580750 1541.871216,418.130493 
	C1543.986938,411.735748 1546.081543,405.334045 1548.343628,398.454254 
	C1549.015381,399.963074 1549.461914,400.965820 1549.970703,402.334656 
z"/>
<path fill="#000000" opacity="1.000000" stroke="none" 
	d="
M660.695068,576.569824 
	C658.569824,578.143250 656.786438,579.778992 654.685242,580.563843 
	C649.081238,582.657043 644.035950,579.032776 644.002869,573.155090 
	C643.982300,569.493408 644.355530,565.787537 643.910156,562.180725 
	C643.334900,557.522217 645.779541,555.476624 649.588989,554.290344 
	C654.232056,552.844421 658.791687,554.393250 660.986450,558.022705 
	C664.670349,564.114807 664.438354,570.188599 660.695068,576.569824 
z"/>
<path fill="#000000" opacity="1.000000" stroke="none" 
	d="
M1034.205566,576.675232 
	C1029.444336,568.315918 1030.935059,558.563904 1037.606934,555.103271 
	C1039.861694,553.933777 1042.867188,553.688110 1045.478149,553.849915 
	C1049.573608,554.103760 1051.536255,556.476440 1051.073242,560.896667 
	C1050.711548,564.350037 1051.006470,567.871582 1050.999634,571.362793 
	C1050.984985,578.939453 1045.542847,582.629883 1038.546021,579.690552 
	C1037.063599,579.067871 1035.818115,577.881470 1034.205566,576.675232 
z"/>
<path fill="#000000" opacity="1.000000" stroke="none" 
	d="
M864.712891,557.866516 
	C867.211304,556.273560 869.314880,554.530518 871.729797,553.747437 
	C877.414246,551.904053 880.974670,554.640930 880.994202,560.450378 
	C881.007629,564.445312 880.654907,568.478027 881.088745,572.425354 
	C881.565308,576.761169 879.615723,578.688721 875.850403,579.986206 
	C871.545837,581.469543 867.736206,580.550537 865.214661,577.198486 
	C860.717285,571.219971 860.656189,564.664124 864.712891,557.866516 
z"/>
<path fill="#000000" opacity="1.000000" stroke="none" 
	d="
M1278.712891,557.866333 
	C1281.517212,556.135742 1283.911865,554.049500 1286.652100,553.382202 
	C1292.154053,552.042542 1295.981689,555.630066 1295.998291,561.431030 
	C1296.007324,564.596619 1295.718140,567.793823 1296.067871,570.920288 
	C1296.557983,575.301636 1295.189575,578.331726 1290.966309,579.862305 
	C1286.195190,581.591431 1281.591553,580.421692 1278.751953,576.351318 
	C1274.622437,570.431885 1274.943726,564.277893 1278.712891,557.866333 
z"/>
<path fill="#000000" opacity="1.000000" stroke="none" 
	d="
M1549.763062,577.408936 
	C1551.047974,574.757812 1552.002563,571.677673 1554.082275,570.316833 
	C1556.527100,568.716980 1559.948486,568.609192 1562.896606,567.866821 
	C1565.083740,574.442505 1564.217163,578.046204 1559.710327,580.008911 
	C1556.100098,581.581116 1552.270874,582.423279 1549.763062,577.408936 
z"/>
<path fill="#000000" opacity="1.000000" stroke="none" 
	d="
M691.779541,569.619751 
	C694.494934,568.940735 696.860352,568.452393 699.213562,567.966614 
	C700.916870,575.676025 699.328979,579.605225 694.072083,580.796143 
	C690.416138,581.624329 686.476868,581.204163 685.369385,577.166321 
	C684.158142,572.750305 687.379517,570.616577 691.779541,569.619751 
z"/>
<path fill="#000000" opacity="1.000000" stroke="none" 
	d="
M1008.992554,569.630310 
	C1007.681519,577.284241 1003.098389,581.512573 997.169189,580.971436 
	C991.647888,580.467651 987.161133,574.831360 987.004456,568.202332 
	C986.826172,560.661865 989.150696,555.923828 993.915771,554.115051 
	C1000.972839,551.436157 1008.649414,556.561035 1008.981628,564.198792 
	C1009.053955,565.861084 1008.994446,567.529114 1008.992554,569.630310 
z"/>
<path fill="#000000" opacity="1.000000" stroke="none" 
	d="
M1652.790771,562.765503 
	C1652.928223,565.162537 1653.019287,567.151306 1652.984863,569.138000 
	C1652.884033,574.955017 1649.459839,579.454895 1644.157837,580.820129 
	C1639.995605,581.891846 1635.094116,579.332703 1632.335815,574.647522 
	C1629.802979,570.345703 1630.400269,560.292053 1633.883423,556.792053 
	C1639.266479,551.383057 1648.366821,551.165344 1652.790771,562.765503 
z"/>
<path fill="#000000" opacity="1.000000" stroke="none" 
	d="
M1338.731934,577.719299 
	C1334.103027,581.369690 1329.461426,582.345459 1324.809326,578.851990 
	C1319.265137,574.688599 1319.364014,568.511597 1320.187012,562.582520 
	C1320.841553,557.865723 1323.814209,554.695984 1328.799805,553.548035 
	C1333.378662,552.493774 1339.226562,555.413879 1340.921509,560.497253 
	C1342.868408,566.337036 1342.971436,572.176514 1338.731934,577.719299 
z"/>
<path fill="#000000" opacity="1.000000" stroke="none" 
	d="
M826.763367,570.328979 
	C826.165771,571.951294 825.770813,573.218201 825.191895,574.394714 
	C822.058350,580.762817 815.973022,582.453064 809.888489,578.978699 
	C802.402466,574.704041 802.333557,559.833008 809.437073,555.293091 
	C817.088501,550.403137 826.159973,555.623413 826.957764,565.442261 
	C827.078369,566.926880 826.913818,568.434692 826.763367,570.328979 
z"/>
<path fill="#000000" opacity="1.000000" stroke="none" 
	d="
M1201.086304,554.680420 
	C1208.956177,558.945435 1208.096680,571.769348 1204.651489,576.648743 
	C1200.845825,582.038391 1192.930176,582.359558 1188.224365,577.297058 
	C1181.347046,569.898438 1184.787476,555.717468 1194.160522,553.552917 
	C1196.194336,553.083313 1198.572144,554.103333 1201.086304,554.680420 
z"/>
<path fill="#000000" opacity="1.000000" stroke="none" 
	d="
M923.162109,561.918457 
	C917.485657,561.963501 912.226990,561.963501 906.835938,561.963501 
	C908.397461,556.183960 912.556335,552.548462 916.985901,553.086121 
	C921.253235,553.604126 923.758179,556.282959 924.517883,560.491394 
	C924.588562,560.882874 923.910339,561.409485 923.162109,561.918457 
z"/>
<path fill="#000000" opacity="1.000000" stroke="none" 
	d="
M1097.974365,568.711548 
	C1097.029663,573.648193 1095.319702,577.726868 1090.901978,579.876648 
	C1086.967163,581.791382 1083.155151,581.243530 1079.881470,578.336670 
	C1075.368774,574.329590 1074.157837,569.107788 1075.369751,563.436157 
	C1076.663452,557.381775 1081.198120,553.165100 1085.869141,553.064575 
	C1091.329102,552.947021 1095.579346,556.805725 1097.201904,563.456909 
	C1097.587646,565.038818 1097.732422,566.679626 1097.974365,568.711548 
z"/>
</svg>